<?xml version="1.0" encoding="utf-8"?>
<!-- Generator: Adobe Illustrator 22.0.1, SVG Export Plug-In . SVG Version: 6.00 Build 0)  -->
<svg version="1.1" id="Layer_1" xmlns="http://www.w3.org/2000/svg" xmlns:xlink="http://www.w3.org/1999/xlink" x="0px" y="0px"
	 viewBox="0 0 71.1 68.5" style="enable-background:new 0 0 71.1 68.5;" xml:space="preserve">
<style type="text/css">
	.st0{fill:#FFFFFF;}
</style>
<path class="st0" d="M1,50.6c0.6,0,1-0.5,1-1V19.3h61.5v11.4c0,0.6,0.5,1,1,1c0.6,0,1-0.5,1-1V10.1c0-3.5-2.8-6.3-6.3-6.3h-2.7V2.5
	c0-1.4-1.1-2.5-2.5-2.5h-1.9c-1.4,0-2.5,1.1-2.5,2.5v1.3h-6.9V2.5c0-1.4-1.1-2.5-2.5-2.5h-1.9c-1.4,0-2.5,1.1-2.5,2.5v1.3h-6.9V2.5
	c0-1.4-1.1-2.5-2.5-2.5h-1.9c-1.4,0-2.5,1.1-2.5,2.5v1.3h-6.9V2.5c0-1.4-1.1-2.5-2.5-2.5h-1.9C9.1,0,7.9,1.1,7.9,2.5v1.3H6.3
	C2.8,3.8,0,6.7,0,10.1v39.4C0,50.2,0.5,50.6,1,50.6z M51.7,2.5c0-0.2,0.2-0.4,0.4-0.4h1.9c0.2,0,0.4,0.2,0.4,0.4v5.1
	c0,0.2-0.2,0.4-0.4,0.4h-1.9c-0.2,0-0.4-0.2-0.4-0.4V2.5z M37.8,2.5c0-0.2,0.2-0.4,0.4-0.4h1.9c0.2,0,0.4,0.2,0.4,0.4v5.1
	c0,0.2-0.2,0.4-0.4,0.4h-1.9c-0.2,0-0.4-0.2-0.4-0.4V2.5z M23.9,2.5c0-0.2,0.2-0.4,0.4-0.4h1.9c0.2,0,0.4,0.2,0.4,0.4v5.1
	c0,0.2-0.2,0.4-0.4,0.4h-1.9c-0.2,0-0.4-0.2-0.4-0.4V2.5z M10,2.5c0-0.2,0.2-0.4,0.4-0.4h1.9c0.2,0,0.4,0.2,0.4,0.4v5.1
	c0,0.2-0.2,0.4-0.4,0.4h-1.9C10.2,8,10,7.8,10,7.6V2.5z M6.3,5.9h1.6v1.7c0,1.4,1.1,2.5,2.5,2.5h1.9c1.4,0,2.5-1.1,2.5-2.5V5.9h6.9
	v1.7c0,1.4,1.1,2.5,2.5,2.5h1.9c1.4,0,2.5-1.1,2.5-2.5V5.9h6.9v1.7c0,1.4,1.1,2.5,2.5,2.5h1.9c1.4,0,2.5-1.1,2.5-2.5V5.9h6.9v1.7
	c0,1.4,1.1,2.5,2.5,2.5h1.9c1.4,0,2.5-1.1,2.5-2.5V5.9h2.7c2.3,0,4.2,1.9,4.2,4.2v7H2.1v-7C2.1,7.8,4,5.9,6.3,5.9z"/>
<path class="st0" d="M11.8,60.3H2.7c-0.3,0-0.6-0.3-0.6-0.6v-5.4c0-0.6-0.5-1-1-1s-1,0.5-1,1v5.4c0,1.5,1.2,2.7,2.7,2.7h9.1
	c0.6,0,1-0.5,1-1C12.8,60.8,12.4,60.3,11.8,60.3z"/>
<path class="st0" d="M11.7,22.3H8.1c-0.6,0-1,0.5-1,1c0,0.6,0.5,1,1,1h3.6c0.6,0,1-0.5,1-1C12.8,22.8,12.3,22.3,11.7,22.3z"/>
<path class="st0" d="M19.3,24.4h3.6c0.6,0,1-0.5,1-1c0-0.6-0.5-1-1-1h-3.6c-0.6,0-1,0.5-1,1C18.2,23.9,18.7,24.4,19.3,24.4z"/>
<path class="st0" d="M30.4,24.4H34c0.6,0,1-0.5,1-1c0-0.6-0.5-1-1-1h-3.6c-0.6,0-1,0.5-1,1C29.3,23.9,29.8,24.4,30.4,24.4z"/>
<path class="st0" d="M41.5,24.4h3.6c0.6,0,1-0.5,1-1c0-0.6-0.5-1-1-1h-3.6c-0.6,0-1,0.5-1,1C40.4,23.9,40.9,24.4,41.5,24.4z"/>
<path class="st0" d="M56.2,22.3h-3.6c-0.6,0-1,0.5-1,1c0,0.6,0.5,1,1,1h3.6c0.6,0,1-0.5,1-1C57.3,22.8,56.8,22.3,56.2,22.3z"/>
<path class="st0" d="M11.7,27.5H8.1c-0.6,0-1,0.5-1,1s0.5,1,1,1h3.6c0.6,0,1-0.5,1-1S12.3,27.5,11.7,27.5z"/>
<path class="st0" d="M19.3,29.6h3.6c0.6,0,1-0.5,1-1s-0.5-1-1-1h-3.6c-0.6,0-1,0.5-1,1S18.7,29.6,19.3,29.6z"/>
<path class="st0" d="M30.4,29.6H34c0.6,0,1-0.5,1-1s-0.5-1-1-1h-3.6c-0.6,0-1,0.5-1,1S29.8,29.6,30.4,29.6z"/>
<path class="st0" d="M41.5,29.6h3.6c0.6,0,1-0.5,1-1s-0.5-1-1-1h-3.6c-0.6,0-1,0.5-1,1S40.9,29.6,41.5,29.6z"/>
<path class="st0" d="M56.2,27.5h-3.6c-0.6,0-1,0.5-1,1s0.5,1,1,1h3.6c0.6,0,1-0.5,1-1S56.8,27.5,56.2,27.5z"/>
<path class="st0" d="M19.3,50.1l5.4,5.4c0.8,0.8,1.8,1.2,2.9,1.2s2.1-0.4,2.9-1.2l14.7-14.7c1.6-1.6,1.6-4.2,0-5.8s-4.2-1.6-5.8,0
	L27.5,46.7l-2.5-2.5c-1.6-1.6-4.2-1.6-5.8,0C17.7,45.9,17.7,48.5,19.3,50.1z M20.7,45.7c0.4-0.4,0.9-0.6,1.4-0.6s1,0.2,1.4,0.6
	l3.2,3.2c0.4,0.4,1.1,0.4,1.5,0l12.5-12.5c0.8-0.8,2.1-0.8,2.9,0c0.8,0.8,0.8,2.1,0,2.9L29,53.9c-0.4,0.4-0.9,0.6-1.4,0.6
	c-0.5,0-1-0.2-1.4-0.6l-5.4-5.4C20,47.8,20,46.5,20.7,45.7z"/>
<path class="st0" d="M65.7,43.8v-8.3c0-0.6-0.5-1-1-1c-0.6,0-1,0.5-1,1v7c-1.9-1-4.1-1.5-6.3-1.5c-7.6,0-13.8,6.2-13.8,13.8
	c0,2,0.4,3.9,1.2,5.6H16.5c-0.6,0-1,0.5-1,1c0,0.6,0.5,1,1,1h29.3c2.5,3.7,6.7,6.1,11.5,6.1c7.6,0,13.8-6.2,13.8-13.8
	C71.1,50.3,68.9,46.3,65.7,43.8z M57.2,66.4c-6.5,0-11.7-5.3-11.7-11.7S50.8,43,57.2,43S69,48.2,69,54.7S63.7,66.4,57.2,66.4z"/>
<path class="st0" d="M57.2,44.5c-5.6,0-10.2,4.6-10.2,10.2c0,5.6,4.6,10.2,10.2,10.2s10.2-4.6,10.2-10.2
	C67.5,49.1,62.9,44.5,57.2,44.5z M58.2,62.8c0.1-0.1,0.1-0.3,0.1-0.5v-1.3c0-0.6-0.5-1-1-1s-1,0.5-1,1v1.3c0,0.2,0,0.3,0.1,0.5
	c-3.7-0.4-6.7-3.4-7.2-7.2c0.1,0.1,0.3,0.1,0.5,0.1h1.3c0.6,0,1-0.5,1-1c0-0.6-0.5-1-1-1h-1.3c-0.2,0-0.3,0-0.5,0.1
	c0.4-3.7,3.4-6.7,7.2-7.2c-0.1,0.1-0.1,0.3-0.1,0.5v1.3c0,0.6,0.5,1,1,1s1-0.5,1-1v-1.3c0-0.2,0-0.3-0.1-0.5
	c3.7,0.4,6.7,3.4,7.2,7.2c-0.1-0.1-0.3-0.1-0.5-0.1h-1.3c-0.6,0-1,0.5-1,1c0,0.6,0.5,1,1,1h1.3c0.2,0,0.3,0,0.5-0.1
	C64.9,59.4,61.9,62.4,58.2,62.8z"/>
<path class="st0" d="M59.5,53.7h-1.3v-1.1c0-0.6-0.5-1-1-1c-0.6,0-1,0.5-1,1v2.1c0,0.6,0.5,1,1,1h2.3c0.6,0,1-0.5,1-1
	C60.6,54.1,60.1,53.7,59.5,53.7z"/>
</svg>
