<?xml version="1.0" encoding="utf-8"?>
<!-- Generator: Adobe Illustrator 22.0.1, SVG Export Plug-In . SVG Version: 6.00 Build 0)  -->
<svg version="1.1" id="Layer_1" xmlns="http://www.w3.org/2000/svg" xmlns:xlink="http://www.w3.org/1999/xlink" x="0px" y="0px"
	 viewBox="0 0 78.2 74.3" style="enable-background:new 0 0 78.2 74.3;" xml:space="preserve">
<style type="text/css">
	.st0{fill:#FFFFFF;}
</style>
<g>
	<path class="st0" d="M1.2,53.8"/>
	<path class="st0" d="M1.2,53.8"/>
	<path class="st0" d="M11.6,45.7c-0.5,0-0.9-0.3-1.1-0.7c-1.7-4-2.8-9.4-2.8-13.6C7.7,14.1,21.8,0,39.1,0c0.7,0,1.2,0.5,1.2,1.2
		s-0.5,1.2-1.2,1.2c-16,0-29,13-29,29c0,3.5,0.9,8.1,2.3,11.7c8.8-2.2,17.8-3.3,26.8-3.3c0.7,0,1.2,0.5,1.2,1.2s-0.5,1.2-1.2,1.2
		c-9.1,0-18.3,1.2-27.2,3.5C11.8,45.7,11.7,45.7,11.6,45.7z"/>
	<path class="st0" d="M1.2,55c-0.5,0-0.9-0.3-1.1-0.8c-0.2-0.6,0-1.3,0.7-1.6c3.5-1.4,7.2-2.7,10.8-3.7l-1.1-4.2
		c-0.2-0.6,0.2-1.3,0.8-1.5c0.6-0.2,1.3,0.2,1.5,0.8l1.4,5.4c0.1,0.3,0,0.6-0.1,0.9c-0.2,0.3-0.4,0.5-0.7,0.6
		c-4,1.1-7.9,2.4-11.7,3.9C1.5,55,1.4,55,1.2,55z"/>
	<path class="st0" d="M25.3,69.6c-0.6,0-1.1-0.4-1.2-1l-1-5.5c-0.1-0.3,0-0.6,0.2-0.9c0.2-0.3,0.5-0.4,0.8-0.5
		c4.9-0.9,10-1.3,15-1.3c0.7,0,1.2,0.5,1.2,1.2s-0.5,1.2-1.2,1.2c-4.5,0-9,0.4-13.4,1.1l0.8,4.3c0.1,0.7-0.3,1.3-1,1.4
		C25.4,69.6,25.3,69.6,25.3,69.6z"/>
	<path class="st0" d="M9,74.3c-0.2,0-0.5-0.1-0.7-0.2c-0.3-0.2-0.5-0.6-0.5-1V62.2l-7.5-7.5C0.1,54.4-0.1,54,0,53.6
		c0.1-0.4,0.4-0.7,0.7-0.9c3.9-1.6,7.9-2.9,12-4c0.6-0.2,1.3,0.2,1.5,0.8l3.6,13.5c2.1-0.5,4.1-1,6.2-1.3c0.7-0.1,1.3,0.3,1.4,1
		l1,5.5c0.1,0.3,0,0.6-0.2,0.9c-0.2,0.3-0.5,0.4-0.8,0.5c-2.2,0.4-4.5,0.9-6.7,1.5l0,0c-3.1,0.8-6.3,1.9-9.3,3.1
		C9.3,74.2,9.2,74.3,9,74.3z M3.3,54.3l6.5,6.5c0.2,0.2,0.4,0.5,0.4,0.8v9.6c2.6-1,5.3-1.8,7.9-2.5l0,0c1.9-0.5,3.8-0.9,5.7-1.3
		l-0.6-3.1c-2,0.4-4,0.8-6,1.4c-0.6,0.2-1.3-0.2-1.5-0.8l-3.6-13.5C9.2,52.2,6.3,53.2,3.3,54.3z M18.5,69.9L18.5,69.9L18.5,69.9z"/>
</g>
<g>
	<path class="st0" d="M77,53.8"/>
	<path class="st0" d="M77,53.8"/>
	<path class="st0" d="M66.6,45.7c-0.1,0-0.2,0-0.3,0c-8.9-2.3-18.1-3.5-27.2-3.5c-0.7,0-1.2-0.5-1.2-1.2s0.5-1.2,1.2-1.2
		c9,0,18,1.1,26.8,3.3c1.4-3.6,2.3-8.1,2.3-11.7c0-16-13-29-29-29c-0.7,0-1.2-0.5-1.2-1.2S38.4,0,39.1,0c17.3,0,31.4,14.1,31.4,31.4
		c0,4.1-1.1,9.6-2.8,13.6C67.5,45.4,67.1,45.7,66.6,45.7z"/>
	<path class="st0" d="M77,55c-0.1,0-0.3,0-0.4-0.1c-3.8-1.5-7.7-2.8-11.7-3.9c-0.3-0.1-0.6-0.3-0.7-0.6c-0.2-0.3-0.2-0.6-0.1-0.9
		l1.4-5.4c0.2-0.6,0.8-1,1.5-0.8c0.6,0.2,1,0.8,0.8,1.5L66.6,49c3.7,1,7.3,2.3,10.8,3.7c0.6,0.2,0.9,0.9,0.7,1.6
		C77.9,54.8,77.5,55,77,55z"/>
	<path class="st0" d="M53,69.6c-0.1,0-0.1,0-0.2,0c-0.7-0.1-1.1-0.7-1-1.4l0.8-4.3c-4.4-0.7-8.9-1.1-13.4-1.1
		c-0.7,0-1.2-0.5-1.2-1.2s0.5-1.2,1.2-1.2c5,0,10.1,0.4,15,1.3c0.3,0.1,0.6,0.2,0.8,0.5c0.2,0.3,0.3,0.6,0.2,0.9l-1,5.5
		C54,69.2,53.5,69.6,53,69.6z"/>
	<path class="st0" d="M69.2,74.3c-0.2,0-0.3,0-0.4-0.1c-3-1.2-6.1-2.3-9.3-3.1l0,0c-2.2-0.6-4.5-1.1-6.7-1.5
		c-0.3-0.1-0.6-0.2-0.8-0.5c-0.2-0.3-0.3-0.6-0.2-0.9l1-5.5c0.1-0.7,0.7-1.1,1.4-1c2.1,0.4,4.2,0.8,6.2,1.3L64,49.6
		c0.2-0.6,0.8-1,1.5-0.8c4.1,1.1,8.1,2.4,12,4c0.4,0.2,0.6,0.5,0.7,0.9c0.1,0.4,0,0.8-0.3,1.1l-7.5,7.5V73c0,0.4-0.2,0.8-0.5,1
		C69.7,74.2,69.4,74.3,69.2,74.3z M60.1,68.8c2.7,0.7,5.3,1.6,7.9,2.5v-9.6c0-0.3,0.1-0.6,0.4-0.8l6.5-6.5C72,53.2,69,52.2,66,51.4
		l-3.6,13.5c-0.2,0.6-0.8,1-1.5,0.8c-2-0.5-4-1-6-1.4l-0.6,3.1C56.3,67.8,58.2,68.3,60.1,68.8L60.1,68.8z"/>
</g>
<g>
	<path class="st0" d="M36.6,14.6c-0.2,0.1-0.4,0.2-0.9,0.2h-7.5v6.6c0.9-0.9,2-1.4,3.8-1.4c1.6,0,2.8,0.5,3.7,1.3
		c1.5,1.5,1.8,3.7,1.8,5.7c0,2.1-0.2,4.1-1.7,5.6c-1,1-2.3,1.6-4.2,1.6c-1.8,0-3.1-0.4-4.2-1.5c-0.8-0.8-1.5-2-1.5-3.2
		c0-0.4,0.1-0.6,0.3-0.8c0.2-0.2,0.4-0.3,0.8-0.3c0.3,0,0.5,0.1,0.7,0.3c0.2,0.2,0.3,0.4,0.5,1.1c0.4,1.7,1.6,2.5,3.5,2.5
		c1.1,0,2-0.3,2.6-0.9c1.1-1.1,1.2-2.8,1.2-4.3c0-2.5-0.5-5.1-3.6-5.1c-1.4,0-2.5,0.4-3.3,1.6c-0.1,0.2-0.3,0.3-0.4,0.5
		c-0.2,0.1-0.4,0.2-0.6,0.2s-0.5-0.1-0.7-0.3c-0.2-0.2-0.3-0.5-0.3-0.9v-8.7c0-0.3,0-0.7,0.3-1c0.3-0.3,0.7-0.3,1-0.3h8.2
		c0.5,0,0.7,0,0.9,0.2c0.3,0.2,0.4,0.4,0.4,0.8C37,14.2,36.9,14.5,36.6,14.6z"/>
	<path class="st0" d="M40.8,28.3v-9.8c0-3.5,2.5-5.8,5.8-5.8c3.3,0,5.8,2.3,5.8,5.8v9.8c0,3.5-2.5,5.8-5.8,5.8
		C43.3,34.1,40.8,31.8,40.8,28.3z M43,18.5v9.9c0,2.2,1.3,3.9,3.6,3.9c2.3,0,3.6-1.6,3.6-3.9v-9.9c0-2.2-1.3-3.9-3.6-3.9
		C44.3,14.6,43,16.3,43,18.5z"/>
</g>
<g>
	<path class="st0" d="M30.4,47.6c0.3,0,0.6-0.1,0.8,0.1c0.3,0.2,0.3,0.5,0.3,0.8l0.8,6.6c0.1,0.4,0.1,0.5,0,0.8
		c-0.1,0.3-0.4,0.5-0.7,0.5c-0.3,0-0.6-0.1-0.8-0.3c-0.1-0.2-0.2-0.3-0.2-0.7l-0.8-6.1l-2.1,0.3l0.3,2.5c0.5,3.7-0.3,4.8-2.1,5
		c-0.4,0.1-0.6,0.1-0.7,0c-0.2-0.1-0.4-0.3-0.4-0.6c0-0.3,0.1-0.6,0.3-0.7c0.1-0.1,0.2-0.1,0.4-0.1c1.1-0.1,1.2-1.5,1-3.5l-0.4-2.8
		c0-0.3-0.1-0.6,0.1-0.8c0.2-0.3,0.5-0.3,0.8-0.3L30.4,47.6z"/>
	<path class="st0" d="M36.9,55.8c-0.2-0.2-0.2-0.6-0.2-0.8l0-6.7c0-0.3,0-0.6,0.2-0.8c0.2-0.2,0.6-0.2,0.8-0.2l3.8,0
		c0.4,0,0.5,0,0.7,0.1c0.2,0.1,0.4,0.4,0.4,0.7c0,0.3-0.1,0.6-0.4,0.7c-0.2,0.1-0.3,0.1-0.7,0.1l-3.1,0l0,2.1l2.5,0
		c0.4,0,0.5,0,0.7,0.1c0.2,0.1,0.4,0.4,0.4,0.7c0,0.3-0.1,0.6-0.4,0.7c-0.2,0.1-0.3,0.1-0.7,0.1l-2.5,0l0,2.1l3.1,0
		c0.4,0,0.5,0,0.7,0.1c0.2,0.1,0.4,0.4,0.4,0.7c0,0.3-0.1,0.6-0.4,0.7C42,56,41.8,56,41.5,56l-3.8,0C37.5,56,37.1,56,36.9,55.8z"/>
	<path class="st0" d="M50.7,49.4L50,55.5c0,0.4-0.1,0.5-0.2,0.7c-0.2,0.2-0.5,0.4-0.8,0.3c-0.3,0-0.6-0.2-0.7-0.5
		c-0.1-0.2-0.1-0.4,0-0.8l0.7-6.1l-1.3-0.2c-0.4,0-0.5-0.1-0.7-0.2c-0.2-0.1-0.3-0.4-0.3-0.7c0-0.3,0.2-0.5,0.4-0.6
		c0.2-0.1,0.3-0.1,0.7,0l4.3,0.5c0.4,0,0.5,0.1,0.7,0.2c0.2,0.1,0.3,0.4,0.3,0.7c0,0.3-0.2,0.5-0.4,0.6c-0.2,0.1-0.3,0.1-0.7,0
		L50.7,49.4z"/>
</g>
</svg>
