<?xml version="1.0" encoding="utf-8"?>
<!-- Generator: Adobe Illustrator 22.0.1, SVG Export Plug-In . SVG Version: 6.00 Build 0)  -->
<svg version="1.1" id="Layer_1" xmlns="http://www.w3.org/2000/svg" xmlns:xlink="http://www.w3.org/1999/xlink" x="0px" y="0px"
	 viewBox="0 0 77.5 77.5" style="enable-background:new 0 0 77.5 77.5;" xml:space="preserve">
<style type="text/css">
	.st0{fill:#FFFFFF;}
</style>
<path class="st0" d="M37.4,38.7H40v2.6h-2.6V38.7z"/>
<path class="st0" d="M77.2,75.5L50.1,34.1c-0.2-0.4-0.6-0.6-1.1-0.6H28.4c-0.4,0-0.8,0.2-1.1,0.6L0.2,75.5c-0.3,0.4-0.3,0.9-0.1,1.3
	c0.2,0.4,0.7,0.7,1.1,0.7h74.9c0.5,0,0.9-0.3,1.1-0.7C77.5,76.4,77.5,75.9,77.2,75.5z M29.1,36.1h1.2L10.1,74.9H3.7L29.1,36.1z
	 M40,74.9v-5.2h-2.6v5.2H13l20.3-38.7h4.2v1.3H40v-1.3h4.2l20.3,38.7H40z M67.4,74.9L47.1,36.1h1.2l25.4,38.7H67.4z"/>
<path class="st0" d="M37.4,43.9H40v3.9h-2.6V43.9z"/>
<path class="st0" d="M37.4,50.3H40v5.2h-2.6V50.3z"/>
<path class="st0" d="M37.4,59.4H40v6.5h-2.6V59.4z"/>
<path class="st0" d="M38.7,31c0.4,0,0.7-0.2,1-0.5c1.1-1.3,10.6-12.9,10.6-18.9C50.3,5.2,45.1,0,38.7,0c-6.4,0-11.6,5.2-11.6,11.6
	c0,6,9.5,17.6,10.6,18.9C38,30.8,38.3,31,38.7,31z M38.7,2.6c5,0,9,4,9,9c0,3.8-5.8,12-9,16c-3.2-4-9-12.2-9-16
	C29.7,6.6,33.7,2.6,38.7,2.6z"/>
<path class="st0" d="M43.9,10.3c0-2.9-2.3-5.2-5.2-5.2c-2.9,0-5.2,2.3-5.2,5.2c0,2.9,2.3,5.2,5.2,5.2C41.6,15.5,43.9,13.2,43.9,10.3
	z M36.1,10.3c0-1.4,1.2-2.6,2.6-2.6c1.4,0,2.6,1.2,2.6,2.6c0,1.4-1.2,2.6-2.6,2.6C37.3,12.9,36.1,11.8,36.1,10.3z"/>
</svg>
