<?xml version="1.0" encoding="utf-8"?>
<!-- Generator: Adobe Illustrator 22.0.1, SVG Export Plug-In . SVG Version: 6.00 Build 0)  -->
<svg version="1.1" id="Layer_1" xmlns="http://www.w3.org/2000/svg" xmlns:xlink="http://www.w3.org/1999/xlink" x="0px" y="0px"
	 viewBox="0 0 51.2 79.1" style="enable-background:new 0 0 51.2 79.1;" xml:space="preserve">
<style type="text/css">
	.st0{fill:#FFFFFF;}
</style>
<g>
	<g>
		<path class="st0" d="M25.4,9.2c-0.1-1-0.4-2-0.9-2.9c-0.5-0.9-1.2-1.7-2-2.3c-1.8-1.3-4.4-2-7.8-1.6c-4.1,0.5-8.4-2-8.9-2.3
			C5.2-0.2,4.4,0,4,0.5C3.9,0.7,3.8,1,3.8,1.3c0.7,7,2.4,11.8,4.5,14.8c1.2,1.8,2.9,3.3,5,4c1.8,0.6,3.7,0.5,5.4-0.2
			c0.5-0.2,1-0.4,1.5-0.7c-0.1-0.2-0.2-0.3-0.3-0.5c-0.3-0.5-0.8-1-1.2-1.4c-0.3,0.2-0.5,0.3-0.8,0.4c-1.2,0.5-2.5,0.5-3.7,0.1
			c-1.6-0.6-2.9-1.7-3.8-3.1c-1.7-2.4-3-6.1-3.8-11.5c2,0.9,5.2,1.9,8.3,1.6C17.6,4.6,19.6,5.1,21,6c0.6,0.4,1,0.9,1.4,1.5
			c0.3,0.6,0.5,1.3,0.6,1.9c0.1,0.7,0,1.3-0.1,2c0.7,0.6,1.4,1.2,2,1.9C25.3,12,25.5,10.6,25.4,9.2z"/>
	</g>
</g>
<g>
	<g>
		<path class="st0" d="M36.6,12.3c-0.5-0.4-1.3-0.3-1.7,0.3c0,0,0,0,0,0c-0.9,1.3-2.2,2-3.5,2.7c-2,1.1-4.2,2.3-5.6,5.2
			c-1.6-6-5-7.9-8.4-9.7c-1.8-1-3.6-2-4.8-3.8c-0.4-0.5-1.1-0.7-1.7-0.3c-0.5,0.4-0.7,1.1-0.3,1.6c1.5,2.3,3.6,3.4,5.7,4.5
			c3.5,1.9,7.1,3.9,7.9,12.6c0.1,0,1.1,0,1.4,0c0.4,0,1.3,0,1.4,0c0.7-5.5,3.2-6.8,5.6-8.1c1.6-0.9,3.1-1.7,4.3-3.5
			C37.3,13.5,37.2,12.7,36.6,12.3z"/>
	</g>
</g>
<g>
	<g>
		<path class="st0" d="M25.6,28C11.5,27.9,0,39.4,0,53.5c0,6.8,2.7,13.3,7.5,18.1c4.8,4.8,11.3,7.5,18.1,7.5
			c14.1,0,25.6-11.4,25.6-25.6C51.2,39.4,39.8,28,25.6,28z M38.1,34.1c4.4,2.8,7.7,7.1,9.4,12c-1.5-1.3-3.2-2.5-4.9-3.5
			C39.2,40.5,36.8,39,38.1,34.1z M7.2,67.7c-3.1-4-4.8-9-4.8-14.1c0-6.1,2.4-12,6.8-16.4c1.1,3.1,3.3,4.9,5.3,6.7
			c1.8,1.6,3.5,3,3.5,4.9c0,1.4-0.8,2.5-1.8,3.7c-1.4,1.5-2.3,3.2-2.9,5.2c-0.2,1.2-0.2,2.5-0.1,3.8c0.1,2,0.2,4.4-0.5,5.8
			C12.1,68.5,10.7,69.1,7.2,67.7z M25.6,76.7L25.6,76.7c-0.9,0-1.9-0.1-2.8-0.2C22,74.9,22.6,73,24,72c1.1-0.8,4,0.1,7.1,1
			c1.6,0.5,3.2,1,4.8,1.3C32.7,75.9,29.2,76.7,25.6,76.7z M39.4,72.1c-1.9,0.3-4.9-0.5-7.7-1.4c-3.7-1.1-7.2-2.1-9.2-0.6
			c-2,1.3-2.9,3.7-2.5,6c-3.7-0.9-7-2.6-9.8-5.1c2,0.3,4-0.9,4.7-2.8c0.8-2,0.7-4.6,0.7-6.9c-0.1-1-0.1-2.1,0.1-3.1
			c0.5-1.6,1.3-3,2.4-4.2c1.3-1.5,2.4-2.9,2.4-5.2c-0.1-3.1-2-4.8-4.3-6.7c-2-1.7-4.1-3.5-4.9-6.6c4.1-3.3,9.2-5,14.4-5
			c3.6,0,7.2,0.8,10.4,2.5c-2.3,7.1,0.9,9.1,5.3,11.8c2.4,1.5,5.1,3.1,7.3,6.2c0.1,0.9,0.2,1.8,0.2,2.7
			C48.7,60.9,45.3,67.7,39.4,72.1z"/>
	</g>
</g>
<g>
	<g>
		<path class="st0" d="M41,7.3c-0.3,0-0.5,0-0.7,0.2c0,0-3.3,2-6.4,1.6c-2.6-0.3-4.6,0.2-6,1.2c-0.7,0.5-1.2,1.1-1.6,1.8
			c-0.4,0.7-0.6,1.5-0.7,2.2c-0.1,0.8-0.1,1.5,0.1,2.3c0.7-0.7,1.5-1.4,2.3-1.9v-0.1c0-0.5,0.2-0.9,0.4-1.3c0.2-0.4,0.5-0.7,0.9-1
			c0.9-0.7,2.3-1,4.3-0.8c2,0.1,4-0.2,5.8-1c-0.6,3.6-1.5,6.1-2.7,7.8c-0.6,1-1.5,1.8-2.6,2.2c-0.6,0.2-1.3,0.2-2,0.1
			c-0.6,0.6-1.2,1.2-1.7,1.9l0.3,0.1c1.3,0.6,2.8,0.6,4.2,0.1c1.6-0.6,2.9-1.7,3.8-3.1c1.6-2.3,2.8-5.9,3.4-11.1
			C42.1,7.9,41.6,7.3,41,7.3z"/>
	</g>
</g>
</svg>
