<?xml version="1.0" encoding="utf-8"?>
<!-- Generator: Adobe Illustrator 22.0.1, SVG Export Plug-In . SVG Version: 6.00 Build 0)  -->
<svg version="1.1" id="Layer_1" xmlns="http://www.w3.org/2000/svg" xmlns:xlink="http://www.w3.org/1999/xlink" x="0px" y="0px"
	 viewBox="0 0 84.1 84.1" style="enable-background:new 0 0 84.1 84.1;" xml:space="preserve">
<style type="text/css">
	.st0{fill:#FFFFFF;}
</style>
<path class="st0" d="M65.8,77.8H18.4c-6.7,0-12.1-5.4-12.1-12.1V18.4c0-6.7,5.4-12.1,12.1-12.1h47.4c6.7,0,12.1,5.4,12.1,12.1v47.4
	C77.8,72.4,72.4,77.8,65.8,77.8z M18.4,9.1c-5.1,0-9.2,4.1-9.2,9.2v47.4c0,5.1,4.1,9.2,9.2,9.2h47.4c5.1,0,9.2-4.1,9.2-9.2V18.4
	c0-5.1-4.1-9.2-9.2-9.2H18.4z"/>
<path class="st0" d="M67,84.1H17.1C7.7,84.1,0,76.4,0,67V17.1C0,7.7,7.7,0,17.1,0H67c9.4,0,17.1,7.7,17.1,17.1V67
	C84.1,76.4,76.4,84.1,67,84.1z M17.1,2.9C9.3,2.9,2.9,9.3,2.9,17.1V67c0,7.8,6.4,14.2,14.2,14.2H67c7.8,0,14.2-6.4,14.2-14.2V17.1
	c0-7.8-6.4-14.2-14.2-14.2H17.1z"/>
<path class="st0" d="M17.9,63.1c-0.3,0-0.6-0.1-0.8-0.3c-0.6-0.5-0.8-1.4-0.3-2c3-4.1,7.3-6.2,11.5-8.2c4.9-2.4,10-4.9,13.2-10.8
	c0.4-0.7,1.2-0.9,1.9-0.6c0.7,0.4,0.9,1.2,0.6,1.9c-3.6,6.7-9.1,9.4-14.5,12c-4,2-7.8,3.8-10.4,7.3C18.8,62.9,18.4,63.1,17.9,63.1z"
	/>
<path class="st0" d="M38.6,64c-4.8,0-9.5-1.9-12.9-5c-5.5-5-8.7-14.7,0.1-25.2c5.1-6.1,10.8-6.2,16.7-6.3c6.2-0.1,12.6-0.2,19.8-6.9
	c0.4-0.4,0.9-0.5,1.4-0.3c0.5,0.2,0.9,0.6,0.9,1.1c0.2,0.8,3.5,20.6-13.8,37.6C47.3,62.4,42.9,64,38.6,64z M62.2,24.4
	C55,30,48.5,30.2,42.7,30.3c-5.8,0.1-10.3,0.2-14.6,5.3c-7.5,9-5.1,16.9-0.4,21.3c5.4,5,14.8,6.3,21.3,0
	C61.6,44.4,62.5,30.1,62.2,24.4z"/>
</svg>
