<?xml version="1.0" encoding="utf-8"?>
<!-- Generator: Adobe Illustrator 22.0.1, SVG Export Plug-In . SVG Version: 6.00 Build 0)  -->
<svg version="1.1" id="Layer_1" xmlns="http://www.w3.org/2000/svg" xmlns:xlink="http://www.w3.org/1999/xlink" x="0px" y="0px"
	 viewBox="0 0 84.1 84.1" style="enable-background:new 0 0 84.1 84.1;" xml:space="preserve">
<style type="text/css">
	.st0{fill:#FFFFFF;}
</style>
<path class="st0" d="M81.4,49.7H68.6c-0.3,0-0.6,0.1-0.9,0.4c-0.2,0.2-0.3,0.6-0.3,0.9c0.1,1.1,0.7,2.1,1.6,2.7
	c1.4,0.9,2.2,2.4,2.1,4.1c-0.1,2.3-2,4.1-4.2,4.3c-1.3,0.1-2.5-0.4-3.4-1.2c-0.9-0.9-1.4-2-1.4-3.3c0-1.5,0.8-3,2.1-3.8
	c0.9-0.6,1.5-1.6,1.6-2.7c0-0.3-0.1-0.7-0.3-0.9c-0.2-0.2-0.5-0.4-0.9-0.4H51.8c-0.7,0-1.2,0.5-1.2,1.2v10.5
	c-1.3-1.6-3.3-2.5-5.4-2.5c-1.9,0-3.7,0.8-5,2.2c-1.3,1.4-2,3.2-1.9,5.2c0.2,3.5,3,6.3,6.5,6.5c2.2,0.1,4.4-0.8,5.7-2.5v10.4
	c0,0.7,0.5,1.2,1.2,1.2h13.9c0.7,0,1.2-0.5,1.2-1.2s-0.5-1.2-1.2-1.2H53V67.8c0-0.3-0.1-0.7-0.4-0.9s-0.6-0.3-0.9-0.3
	c-1.1,0.1-2,0.7-2.6,1.6c-0.9,1.4-2.4,2.2-4.1,2.1c-2.3-0.1-4.1-2-4.3-4.2c-0.1-1.3,0.4-2.5,1.2-3.4c0.9-0.9,2-1.4,3.3-1.4
	c1.5,0,3,0.8,3.8,2.1c0.6,0.9,1.5,1.5,2.6,1.6c0.3,0,0.7-0.1,0.9-0.3c0.2-0.2,0.4-0.5,0.4-0.9V52.1h9.3c-1.7,1.3-2.6,3.3-2.6,5.4
	c0,1.9,0.8,3.7,2.2,5c1.4,1.3,3.2,2,5.2,1.9c3.5-0.2,6.3-3,6.5-6.5c0.1-2.3-0.9-4.4-2.6-5.8h9.4v20.6c0,3.6-3,6.6-6.6,6.6h-3.2
	c-0.7,0-1.2,0.5-1.2,1.2c0,0.7,0.5,1.2,1.2,1.2h3.2c4.9,0,9-4,9-9V50.9C82.6,50.3,82.1,49.7,81.4,49.7z"/>
<path class="st0" d="M26,44.4c1.5,0,3,0.8,3.8,2.1c0.6,0.9,1.5,1.5,2.6,1.6c0.3,0,0.7-0.1,0.9-0.3c0.2-0.2,0.4-0.5,0.4-0.9V35.3H43
	c-1.7,1.3-2.6,3.3-2.6,5.4c0,1.9,0.8,3.7,2.2,5c1.3,1.2,3,1.9,4.7,1.9c0.1,0,0.3,0,0.4,0c3.5-0.2,6.3-3,6.5-6.5
	c0.1-2.3-0.9-4.4-2.6-5.8h10.6c0.7,0,1.2-0.5,1.2-1.2V12.3c0-4.9-4-9-9-9H32.5H18.4c-0.7,0-1.2,0.5-1.2,1.2s0.5,1.2,1.2,1.2h12.9
	v11.7c0,0.3,0.1,0.7,0.4,0.9c0.2,0.2,0.6,0.3,0.9,0.3c1.1-0.1,2-0.7,2.6-1.6c0.9-1.4,2.4-2.2,4.1-2.1c1.8,0.1,3.4,1.3,4,3
	c0,0.1,0,0.1,0.1,0.2c0.1,0.3,0.1,0.5,0.2,0.8c0,0.1,0,0.1,0,0.2c0.1,1.3-0.4,2.5-1.2,3.4c-0.9,0.9-2,1.4-3.3,1.4
	c-1.5,0-3-0.8-3.8-2.1c-0.6-0.9-1.5-1.5-2.6-1.6c-0.1,0-0.2,0-0.2,0c-0.2,0-0.5,0.1-0.7,0.3c-0.2,0.2-0.3,0.4-0.4,0.6
	c0,0.1,0,0.2,0,0.2v11.5h-1.9c-0.7,0-1.2,0.5-1.2,1.2s0.5,1.2,1.2,1.2h1.9v9.3C30,43,28.1,42.1,26,42.1c-1.9,0-3.7,0.8-5,2.2
	c-1.3,1.4-2,3.2-1.9,5.2c0.2,3.5,3,6.3,6.5,6.5c2.2,0.1,4.4-0.8,5.7-2.5v9.2H10.7c-3.6,0-6.6-3-6.6-6.6V35.3h11.6
	c0.3,0,0.7-0.1,0.9-0.4s0.3-0.6,0.3-0.9c-0.1-1-0.7-1.9-1.6-2.5c-1.4-0.9-2.2-2.4-2.1-4.1c0.1-2.3,2-4.1,4.2-4.3
	c1.3-0.1,2.5,0.4,3.4,1.2c0.9,0.9,1.4,2,1.4,3.3c0,1.5-0.8,3-2.1,3.8c-0.9,0.6-1.4,1.5-1.6,2.5c0,0.3,0.1,0.7,0.3,0.9
	c0.2,0.3,0.6,0.4,0.9,0.4h4.9c0.7,0,1.2-0.5,1.2-1.2s-0.5-1.2-1.2-1.2h-2.5c1.6-1.3,2.5-3.2,2.5-5.3c0-1.9-0.8-3.7-2.2-5
	c-1.4-1.3-3.2-2-5.2-1.9c-3.5,0.2-6.3,3-6.5,6.5c-0.1,2.2,0.8,4.3,2.5,5.7H4.1V12.3c0-3.6,3-6.6,6.6-6.6h3c0.7,0,1.2-0.5,1.2-1.2
	s-0.5-1.2-1.2-1.2h-3c-4.9,0-9,4-9,9v21.8V56c0,4.9,4,9,9,9h21.8c0.7,0,1.2-0.5,1.2-1.2V51c0-0.3-0.1-0.7-0.4-0.9s-0.6-0.3-0.9-0.3
	c-1.1,0.1-2,0.7-2.6,1.6c-0.9,1.4-2.4,2.2-4.1,2.1c-2.3-0.1-4.1-2-4.3-4.2c-0.1-1.3,0.4-2.5,1.2-3.4C23.5,44.9,24.7,44.4,26,44.4z
	 M33.7,23.8c1.3,1.6,3.3,2.6,5.4,2.6c1.9,0,3.7-0.8,5-2.2c1.3-1.4,2-3.2,1.9-5.2c-0.2-3.5-3-6.3-6.5-6.5c-2.2-0.1-4.4,0.8-5.7,2.5
	V5.7h20.6c3.6,0,6.6,3,6.6,6.6v20.6H49.3c-0.3,0-0.6,0.1-0.9,0.4c-0.2,0.2-0.3,0.6-0.3,0.9c0.1,1.1,0.7,2.1,1.6,2.7
	c1.4,0.9,2.2,2.4,2.1,4.1c-0.1,2.3-2,4.1-4.2,4.3c-1.3,0.1-2.5-0.4-3.4-1.2c-0.9-0.9-1.4-2-1.4-3.3c0-1.5,0.8-3,2.1-3.8
	c0.9-0.6,1.5-1.6,1.6-2.7c0-0.3-0.1-0.7-0.3-0.9c-0.2-0.2-0.5-0.4-0.9-0.4H33.7L33.7,23.8L33.7,23.8z"/>
</svg>
