<?xml version="1.0" encoding="utf-8"?>
<!-- Generator: Adobe Illustrator 22.0.1, SVG Export Plug-In . SVG Version: 6.00 Build 0)  -->
<svg version="1.1" id="Layer_1" xmlns="http://www.w3.org/2000/svg" xmlns:xlink="http://www.w3.org/1999/xlink" x="0px" y="0px"
	 viewBox="0 0 84.1 84.1" style="enable-background:new 0 0 84.1 84.1;" xml:space="preserve">
<style type="text/css">
	.st0{fill:#FFFFFF;}
</style>
<path class="st0" d="M79.8,18.7H56.5c-0.7,0-1.3,0.6-1.3,1.3v29.8H26.8v-3.9c0-0.7-0.6-1.3-1.3-1.3h-3.9v2.6h2.6v2.6H19v-5.2h-2.6
	v5.2h-5.2v-2.6h2.6v-2.6H10c-0.7,0-1.3,0.6-1.3,1.3v3.9H4.8c-0.7,0-1.3,0.6-1.3,1.3v28.5c0,0.7,0.6,1.3,1.3,1.3h75
	c0.7,0,1.3-0.6,1.3-1.3V20C81.1,19.3,80.5,18.7,79.8,18.7z M57.8,21.3h20.7v15.5H57.8V21.3z M55.3,57.5H32v-5.2h23.3V57.5z
	 M6.1,52.3h23.3v5.2H6.1V52.3z M6.1,60.1h23.3v18.1H6.1V60.1z M32,60.1h10.3v18.1H32V60.1z M44.9,60.1h10.3v18.1H44.9V60.1z
	 M57.8,78.2V39.4h20.7v38.8H57.8z"/>
<path class="st0" d="M60.4,26.5H63v5.2h-2.6V26.5z"/>
<path class="st0" d="M60.4,44.6H63v5.2h-2.6V44.6z"/>
<path class="st0" d="M26.8,54.9c0,0.7-0.6,1.3-1.3,1.3c-0.7,0-1.3-0.6-1.3-1.3c0-0.7,0.6-1.3,1.3-1.3C26.2,53.6,26.8,54.2,26.8,54.9
	z"/>
<path class="st0" d="M4.8,27.8h25.9c0.7,0,1.3-0.6,1.3-1.3v-3.9c0-0.3-0.1-0.7-0.4-0.9l-5.2-5.2c-0.2-0.2-0.6-0.4-0.9-0.4h-1.3V4.5
	c0-0.7-0.6-1.3-1.3-1.3H12.6c-0.7,0-1.3,0.6-1.3,1.3v11.6H10c-0.3,0-0.7,0.1-0.9,0.4l-5.2,5.2c-0.2,0.2-0.4,0.6-0.4,0.9v3.9
	C3.5,27.2,4.1,27.8,4.8,27.8z M13.9,5.8h7.8v10.3h-7.8V5.8z M6.1,23.1l4.4-4.4H25l4.4,4.4v2.1H6.1V23.1z"/>
<path class="st0" d="M25.5,62.7H10c-0.7,0-1.3,0.6-1.3,1.3v10.3c0,0.7,0.6,1.3,1.3,1.3h15.5c0.7,0,1.3-0.6,1.3-1.3V64
	C26.8,63.3,26.2,62.7,25.5,62.7z M24.2,73H11.3v-7.8h12.9V73z"/>
<path class="st0" d="M41,53.6h5.2v2.6H41V53.6z"/>
<path class="st0" d="M37.1,66.6h2.6v5.2h-2.6V66.6z"/>
<path class="st0" d="M47.5,66.6h2.6v5.2h-2.6V66.6z"/>
<path class="st0" d="M34.6,35.5h7.8c0.7,0,1.3-0.6,1.3-1.3v-1.3c0-2.4-1.6-4.4-3.9-5V3.2h-2.6V28c-2.3,0.6-3.9,2.6-3.9,5v1.3
	C33.3,35,33.8,35.5,34.6,35.5z M38.4,30.4c1.4,0,2.6,1.2,2.6,2.6h-5.2C35.9,31.5,37,30.4,38.4,30.4z"/>
<path class="st0" d="M43.6,25.2h7.8c0.7,0,1.3-0.6,1.3-1.3v-1.3c0-2.4-1.6-4.4-3.9-5V3.2h-2.6v14.4c-2.3,0.6-3.9,2.6-3.9,5v1.3
	C42.3,24.6,42.9,25.2,43.6,25.2z M47.5,20c1.4,0,2.6,1.2,2.6,2.6h-5.2C44.9,21.2,46.1,20,47.5,20z"/>
<path class="st0" d="M11.3,54.9c0,0.7-0.6,1.3-1.3,1.3s-1.3-0.6-1.3-1.3c0-0.7,0.6-1.3,1.3-1.3S11.3,54.2,11.3,54.9z"/>
<path class="st0" d="M16.4,54.9c0,0.7-0.6,1.3-1.3,1.3s-1.3-0.6-1.3-1.3c0-0.7,0.6-1.3,1.3-1.3S16.4,54.2,16.4,54.9z"/>
<path class="st0" d="M21.6,54.9c0,0.7-0.6,1.3-1.3,1.3c-0.7,0-1.3-0.6-1.3-1.3c0-0.7,0.6-1.3,1.3-1.3C21,53.6,21.6,54.2,21.6,54.9z"
	/>
</svg>
