<?xml version="1.0" encoding="utf-8"?>
<!-- Generator: Adobe Illustrator 22.0.1, SVG Export Plug-In . SVG Version: 6.00 Build 0)  -->
<svg version="1.1" id="Layer_1" xmlns="http://www.w3.org/2000/svg" xmlns:xlink="http://www.w3.org/1999/xlink" x="0px" y="0px"
	 viewBox="0 0 84.1 84.1" style="enable-background:new 0 0 84.1 84.1;" xml:space="preserve">
<style type="text/css">
	.st0{fill:#FFFFFF;}
</style>
<g>
	<g>
		<path class="st0" d="M57.4,20.7c-0.1,0-0.1,0-0.1,0c-0.3-2.7-2.7-4.6-5.5-4.4c-0.4,0-0.9,0.2-1.3,0.3c-1-3.5-4.6-5.5-8.1-4.5
			c-0.5,0.2-1.2,0.4-1.6,0.8c-1-0.7-2.1-1-3.2-1c-2.6,0-4.8,1.9-5.4,4.4H32c-2.4,0-4.4,2-4.4,4.4s2,4.4,4.4,4.4h4.6
			c0.4,1.3,1.6,2.2,3.1,2.2h17.6c1.9,0,3.3-1.4,3.3-3.3C60.6,22.3,59.2,20.7,57.4,20.7z M36.6,22.9H32c-1.2,0-2.2-1-2.2-2.2
			s1-2.2,2.2-2.2c0.2,0,0.5,0,0.8,0.1c0.5,0.2,1.2-0.1,1.4-0.7c0-0.1,0-0.2,0-0.4v-0.1c0-1.8,1.4-3.3,3.3-3.3c0.5,0,1,0.1,1.4,0.3
			c-0.9,1.2-1.4,2.6-1.4,4.1c0,0.9,0.2,1.8,0.5,2.6C37.4,21.6,36.9,22.1,36.6,22.9z M57.9,25c-0.1,0-0.3,0.1-0.5,0.1H39.7
			c-0.7,0-1.1-0.4-1.1-1.1s0.4-1.1,1.1-1.1c0.4,0,0.9-0.2,1.1-0.7c0.2-0.3,0.1-0.8-0.1-1.1c-0.7-0.8-1-1.6-1-2.6
			c0-2.4,2-4.4,4.4-4.4s4.4,1.9,4.4,4.4c0,0.7,0.4,1.2,1,1.2c0.3,0,0.7-0.1,0.9-0.3c1-1.1,2.7-1.1,3.8-0.1c0.8,0.7,1,1.8,0.8,2.6
			c-0.1,0.5,0.2,1.2,0.8,1.3c0.3,0.1,0.7,0,0.9-0.1c0.5-0.3,1.2-0.2,1.5,0.3S58.4,24.7,57.9,25z"/>
	</g>
</g>
<g>
	<g>
		<path class="st0" d="M41.9,19.6h2.2c0-0.7,0.4-1.1,1.1-1.1v-2.2C43.4,16.3,41.9,17.7,41.9,19.6z"/>
	</g>
</g>
<g>
	<path class="st0" d="M7.5,60.3c0.1,0.2,0.1,0.4,0.2,0.6v-3.2C7.4,58.4,7.3,59.3,7.5,60.3z"/>
	<path class="st0" d="M51.5,56.3c2.1-2.1,3.2-4.8,3.2-7.8v-0.3h-2.2v0.3c0,2.3-0.9,4.6-2.5,6.3l-1.5,1.5l1.5,1.5L51.5,56.3z"/>
	<path class="st0" d="M45.6,61.1L44,59.5l-0.5,0.5c-2.6,2.6-4.2,6.3-4.2,10.1h2.2c0-3.2,1.3-6.3,3.5-8.6L45.6,61.1z"/>
	<path class="st0" d="M51,65.5l-1.5-1.5L49,64.5c-2.6,2.6-4.2,6.9-4.2,10.7H47c0-3.2,1.3-6.9,3.5-9.2L51,65.5z"/>
	<path class="st0" d="M15.1,75.7c0.2,0,0.4,0.1,0.5,0.1c0.3,0.2,0.8,0.2,1.2,0c0.3-0.2,0.5-0.7,0.4-1.1v-0.1c0-0.7,0.4-1.1,1.1-1.1
		c0.7,0,1.1,0.4,1.1,1.1c0,0.1,0,0.1,0,0.2c-0.1,0.5,0.3,1.2,0.9,1.2c0.2,0,0.5,0,0.8-0.1c0.3-0.2,0.8-0.2,1.2,0
		c0.5,0.3,1.2,0.2,1.5-0.3c0-0.1,0.1-0.1,0.1-0.2c0.2-0.5,0.8-0.9,1.4-0.7c0.3,0.1,0.5,0.3,0.7,0.7c0.2,0.5,0.9,0.9,1.4,0.7
		c0.1,0,0.2-0.1,0.2-0.1c0.5-0.3,1.2-0.2,1.5,0.3c0,0.1,0,0.1,0.1,0.2h2.3c0.7-8.3,5.1-16,12-20.9l4.7-3.3c1.2-0.9,1.9-2.2,1.9-3.6
		v-0.9c0-1.4-0.8-2.9-2-3.6l-1.1-0.7l2.1-1.4l6,4.2c2.3,1.6,3.7,4.3,3.7,7.1V54c0,1.8-0.5,3.4-1.4,4.8l-2.5,3.8
		c-1.5,2.2-2.4,4.8-2.5,7.5c-0.3,0-0.5,0.1-0.8,0.3l-2.2,2.2c-0.3,0.2-0.4,0.4-0.4,0.8v1.8L48,76.4h3.1c0.2-0.2,0.3-0.4,0.3-0.7
		v-1.8l1.5-1.5h3.5l1.2,1.2c-0.1,0-0.3,0.1-0.4,0.2L55,76c-0.1,0.1-0.2,0.3-0.3,0.4h2.9l0.7-0.7h1.8c0.3,0,0.5-0.1,0.8-0.3l1.9-1.9
		h2.9v2.2h2.2v-2.9l1.1-1.1l2.8,2.8l1.5-1.5l-3.2-3.2v-1.3l1.5-1.5h3.7v5c0.7-1.3,1.1-2.7,1.1-4.2v-3h-5.2c-0.3,0-0.5,0.1-0.8,0.3
		l-2.2,2.2c-0.2,0.2-0.3,0.4-0.3,0.8v1.8l-1.5,1.5h-4c-0.3,0-0.5,0.1-0.8,0.3L60.2,73l-2.5-2.5c-0.2-0.2-0.4-0.3-0.8-0.3h-2.2
		c0.2-2.2,0.9-4.4,2.2-6.3l2.5-3.8c1.2-1.8,1.9-4,1.9-6v-0.7c0-3.6-1.8-6.9-4.7-9l-5.4-3.7l3.1-2.2l3,3c0.3,0.3,1,0.4,1.4,0.1
		l2.5-1.6l1.5,1.5c0.3,0.3,1,0.4,1.4,0.1l3-2l8.8,7.1l0.5-0.7v-1.7L60.9,31.9c-0.3-0.3-0.9-0.3-1.3,0L45.3,42.1L30,31.9
		c-0.3-0.2-0.9-0.2-1.2,0L7.9,45.1l-0.9,2.9l13.5-8.4l3.7,2.9c0.4,0.3,0.9,0.3,1.3,0l3.7-2.9l2.6,1.8c0.4,0.3,1,0.2,1.4-0.1l2.6-2.6
		l11,7.4c0.7,0.4,1,1.1,1,1.9v0.9c0,0.7-0.3,1.4-0.9,1.8l-4.7,3.3c-6.7,4.7-11.3,12-12.6,20.1c-0.7-0.4-1.5-0.5-2.3-0.3
		c-1.1-1.4-3.2-1.6-4.6-0.4c-0.1,0.1-0.3,0.3-0.4,0.4c-0.3-0.1-0.7-0.1-1-0.1c-0.2-0.5-0.5-1-0.9-1.3v-3.4c0.5,0.2,1.1,0.3,1.6,0.3
		c2.7,0,4.9-2.2,4.9-4.9c0-0.2,0-0.4,0-0.7c3-0.5,4.9-3.4,4.4-6.4c-0.2-1.3-1-2.5-2.1-3.3c0-0.7-0.2-1.4-0.4-2
		c0.3-0.5,0.4-1.2,0.4-1.9c0-2.1-1.8-3.8-3.8-3.8c-0.7,0-1.4,0.2-2,0.5c-1.5-1-3.5-0.7-4.5,0.9c-0.8-0.3-1.3-0.4-1.9-0.4
		c-2.4,0-4.4,2-4.4,4.4c0,0.1,0,0.1,0,0.2c-1.3,0.4-2.2,1.8-2.2,3.1v0.1c-1.4,0.4-2.5,1.4-3,2.7v3.2c0.7,1.7,2.3,2.7,4.1,2.7
		c0,2.4,2,4.4,4.4,4.4c0.8,0,1.5-0.2,2.2-0.5v3.8c-1.4,0-2.6,0.9-3.1,2.2c-1.4-0.1-2.6,0.7-3.2,1.8c0.6,0.4,1.3,0.6,2.1,0.8
		C14.4,75.9,14.7,75.7,15.1,75.7z M60.2,34.1l5.1,3.8l-1.5,1.1l-1.5-1.5c-0.3-0.3-1-0.4-1.4-0.1l-2.5,1.6l-2-2L60.2,34.1z
		 M32.6,39.1L30,37.4c-0.4-0.2-0.9-0.2-1.3,0L25,40.3l-2.4-1.8l6.8-4.3l4.8,3.3L32.6,39.1z M17.8,65c-0.8,1-2.1,1.1-3.1,0.3
		c-0.4-0.4-0.8-1.1-0.8-1.8c0-0.3,0.1-0.7,0.2-1c0.2-0.5,0-1.2-0.5-1.4c-0.3-0.1-0.7-0.1-1,0c-1.1,0.5-2.4,0.1-3-1s-0.1-2.4,1-3
		c0.3-0.1,0.7-0.2,1.1-0.2h0.1c0.4,0,0.8-0.1,1-0.5c0.2-0.3,0.2-0.8,0-1.1c0.1-0.1,0-0.3,0-0.5c0-0.5,0.4-1.1,1.1-1.1h0.1
		c0.5,0.1,1.1-0.3,1.2-1c0-0.2,0-0.3-0.1-0.5c-0.1-0.1-0.1-0.4-0.1-0.7c0-1.2,1-2.2,2.2-2.2c0.5,0,1.1,0.2,1.5,0.5
		c0.4,0.4,1.1,0.3,1.5-0.1c0.1-0.2,0.2-0.4,0.3-0.7c0-0.5,0.5-1,1.2-1c0.3,0,0.7,0.2,0.8,0.4c0.2,0.2,0.5,0.4,0.9,0.4
		s0.7-0.1,0.9-0.3c0.3-0.3,0.8-0.5,1.2-0.5c0.9,0,1.6,0.8,1.6,1.6c0,0.4-0.1,0.8-0.4,1.1c-0.3,0.4-0.3,1,0,1.4
		c0.3,0.3,0.4,0.9,0.4,1.3c0,0.1,0,0.2,0,0.4c-0.1,0.4,0.1,0.9,0.5,1.1c1.5,0.9,2.2,2.9,1.3,4.5c-0.5,1.1-1.6,1.6-2.9,1.6h-0.1H26
		c-0.4,0-0.8,0.1-1,0.4c-0.2,0.3-0.2,0.8-0.1,1.1c0.2,0.3,0.3,0.8,0.3,1.2c0,1.5-1.2,2.7-2.7,2.7c-0.5,0-1.2-0.2-1.6-0.5v-4.4l4-3
		l-1.3-1.8l-2.9,2.1v-5.5h-2.2v5.5l-2.6-2L14.4,59l4,3v2.7C18.2,64.7,18.1,64.8,17.8,65z"/>
</g>
<path class="st0" d="M65.8,77.7H18.4c-6.6,0-11.9-5.3-11.9-11.9V18.4c0-6.6,5.3-11.9,11.9-11.9h47.4c6.6,0,11.9,5.3,11.9,11.9v47.4
	C77.7,72.3,72.3,77.7,65.8,77.7z M18.4,8.9c-5.2,0-9.4,4.2-9.4,9.4v47.4c0,5.2,4.2,9.4,9.4,9.4h47.4c5.2,0,9.4-4.2,9.4-9.4V18.4
	c0-5.2-4.2-9.4-9.4-9.4H18.4z"/>
<path class="st0" d="M67,84.1H17.1C7.7,84.1,0,76.4,0,67V17.1C0,7.7,7.7,0,17.1,0H67c9.4,0,17.1,7.7,17.1,17.1V67
	C84.1,76.4,76.4,84.1,67,84.1z M17.1,2.9C9.3,2.9,2.9,9.3,2.9,17.1V67c0,7.8,6.4,14.2,14.2,14.2H67c7.8,0,14.2-6.4,14.2-14.2V17.1
	c0-7.8-6.4-14.2-14.2-14.2H17.1z"/>
</svg>
