<?xml version="1.0" encoding="utf-8"?>
<!-- Generator: Adobe Illustrator 22.0.1, SVG Export Plug-In . SVG Version: 6.00 Build 0)  -->
<svg version="1.1" id="Layer_1" xmlns="http://www.w3.org/2000/svg" xmlns:xlink="http://www.w3.org/1999/xlink" x="0px" y="0px"
	 viewBox="0 0 84.5 84.8" style="enable-background:new 0 0 84.5 84.8;" xml:space="preserve">
<style type="text/css">
	.st0{fill:#FFFFFF;}
</style>
<path class="st0" d="M24.8,33.2c-0.2,0-0.4-0.1-0.5-0.2l-6.6-4.8L11.2,33c-0.3,0.2-0.7,0.2-1,0.1c-0.3-0.2-0.5-0.5-0.5-0.9l0.9-8.1
	l-7.4-3.3c-0.3-0.1-0.5-0.5-0.5-0.8s0.2-0.7,0.5-0.8l7.5-3.3L9.8,7.8c0-0.4,0.1-0.7,0.5-0.9c0.3-0.2,0.7-0.2,1,0.1l6.6,4.8L24.3,7
	c0.3-0.2,0.7-0.2,1-0.1c0.3,0.2,0.5,0.5,0.5,0.9l-0.9,8.1l7.4,3.3c0.3,0.1,0.5,0.5,0.5,0.8c0,0.4-0.2,0.7-0.5,0.8l-7.5,3.3l0.9,8.1
	c0,0.4-0.1,0.7-0.5,0.9C25.1,33.2,25,33.2,24.8,33.2z M17.7,26.2c0.2,0,0.4,0.1,0.5,0.2l5.4,4L23,23.7c0-0.4,0.2-0.8,0.5-0.9
	l6.2-2.7l-6.2-2.7c-0.4-0.2-0.6-0.5-0.5-0.9l0.7-6.7l-5.4,4c-0.3,0.2-0.8,0.2-1.1,0l-5.4-4l0.7,6.7c0,0.4-0.2,0.8-0.5,0.9L5.8,20
	l6.2,2.7c0.4,0.2,0.6,0.5,0.5,0.9l-0.7,6.7l5.4-4C17.4,26.2,17.5,26.2,17.7,26.2z"/>
<g>
	<path class="st0" d="M17.7,40c-0.5,0-0.9-0.4-0.9-0.9V0.9c0-0.5,0.4-0.9,0.9-0.9s0.9,0.4,0.9,0.9v38.2C18.7,39.6,18.3,40,17.7,40z"
		/>
	<path class="st0" d="M17.7,7.7c-0.2,0-0.5-0.1-0.6-0.3l-3.9-3.9c-0.4-0.4-0.4-0.9,0-1.3c0.4-0.4,0.9-0.4,1.3,0l3.3,3.3L21,2.2
		c0.4-0.4,0.9-0.4,1.3,0s0.4,0.9,0,1.3l-3.9,3.9C18.2,7.6,18,7.7,17.7,7.7z"/>
	<path class="st0" d="M21.7,38.1c-0.2,0-0.5-0.1-0.6-0.3l-3.3-3.3l-3.3,3.3c-0.4,0.4-0.9,0.4-1.3,0c-0.4-0.4-0.4-0.9,0-1.3l3.9-3.9
		c0.4-0.4,0.9-0.4,1.3,0l3.9,3.9c0.4,0.4,0.4,0.9,0,1.3C22.1,38,21.9,38.1,21.7,38.1z"/>
</g>
<g>
	<path class="st0" d="M1.2,30.5c-0.3,0-0.6-0.2-0.8-0.5c-0.3-0.4-0.1-1,0.3-1.3l33-19.1c0.4-0.3,1-0.1,1.3,0.3
		c0.3,0.4,0.1,1-0.3,1.3l-33,19.1C1.5,30.4,1.4,30.5,1.2,30.5z"/>
	<path class="st0" d="M34.6,15.7c-0.1,0-0.2,0-0.2,0L29,14.2c-0.5-0.1-0.8-0.6-0.6-1.1l1.4-5.4c0.1-0.5,0.6-0.8,1.1-0.6
		c0.5,0.1,0.8,0.6,0.6,1.1l-1.2,4.5l4.5,1.2c0.5,0.1,0.8,0.6,0.6,1.1C35.4,15.4,35,15.7,34.6,15.7z"/>
	<path class="st0" d="M4.8,32.9c-0.1,0-0.2,0-0.2,0c-0.5-0.1-0.8-0.6-0.6-1.1l1.2-4.5l-4.5-1.2C0.2,26-0.1,25.5,0,25
		c0.1-0.5,0.6-0.8,1.1-0.6l5.4,1.4c0.2,0.1,0.4,0.2,0.6,0.4c0.1,0.2,0.2,0.5,0.1,0.7l-1.4,5.4C5.6,32.6,5.2,32.9,4.8,32.9z"/>
</g>
<g>
	<path class="st0" d="M34.2,30.6c-0.2,0-0.3,0-0.5-0.1L0.9,11.1c-0.4-0.3-0.6-0.8-0.3-1.3c0.3-0.4,0.8-0.6,1.3-0.3l32.8,19.4
		c0.4,0.3,0.6,0.8,0.3,1.3C34.8,30.5,34.5,30.6,34.2,30.6z"/>
	<path class="st0" d="M30.5,33c-0.4,0-0.8-0.3-0.9-0.7L28.3,27c-0.1-0.2,0-0.5,0.1-0.7c0.1-0.2,0.3-0.4,0.6-0.4l5.4-1.4
		c0.5-0.1,1,0.2,1.1,0.7c0.1,0.5-0.2,1-0.7,1.1l-4.5,1.1l1.1,4.5c0.1,0.5-0.2,1-0.7,1.1C30.7,33,30.6,33,30.5,33z"/>
	<path class="st0" d="M1,15.5c-0.4,0-0.8-0.3-0.9-0.7c-0.1-0.5,0.2-1,0.7-1.1l4.5-1.1L4.1,8.1C3.9,7.6,4.2,7.1,4.7,7
		c0.5-0.1,1,0.2,1.1,0.7L7.2,13c0.1,0.5-0.2,1-0.7,1.1l-5.4,1.4C1.1,15.5,1,15.5,1,15.5z"/>
</g>
<path class="st0" d="M64.9,75.8c-5.8,0-10.6-4.8-10.6-10.6c0-5.8,4.8-10.6,10.6-10.6c5.8,0,10.6,4.8,10.6,10.6
	C75.5,71,70.7,75.8,64.9,75.8z M64.9,57.1c-4.5,0-8.1,3.6-8.1,8.1c0,4.5,3.6,8.1,8.1,8.1c4.5,0,8.1-3.6,8.1-8.1
	C73,60.7,69.3,57.1,64.9,57.1z"/>
<path class="st0" d="M59.4,66.5c-0.7,0-1.3-0.6-1.3-1.3c0-3.7,3-6.7,6.7-6.7c0.7,0,1.3,0.6,1.3,1.3S65.6,61,64.9,61
	c-2.3,0-4.2,1.9-4.2,4.2C60.7,65.9,60.1,66.5,59.4,66.5z"/>
<path class="st0" d="M64.9,84.8c-0.7,0-1.3-0.6-1.3-1.3v-4.1c0-0.7,0.6-1.3,1.3-1.3s1.3,0.6,1.3,1.3v4.1
	C66.1,84.2,65.6,84.8,64.9,84.8z"/>
<path class="st0" d="M64.9,52.2c-0.7,0-1.3-0.6-1.3-1.3v-4.1c0-0.7,0.6-1.3,1.3-1.3s1.3,0.6,1.3,1.3V51
	C66.1,51.7,65.6,52.2,64.9,52.2z"/>
<path class="st0" d="M50.7,66.5h-4.1c-0.7,0-1.3-0.6-1.3-1.3s0.6-1.3,1.3-1.3h4.1c0.7,0,1.3,0.6,1.3,1.3S51.3,66.5,50.7,66.5z"/>
<path class="st0" d="M83.2,66.5h-4.1c-0.7,0-1.3-0.6-1.3-1.3s0.6-1.3,1.3-1.3h4.1c0.7,0,1.3,0.6,1.3,1.3S83.9,66.5,83.2,66.5z"/>
<path class="st0" d="M55.6,82.3c-0.2,0-0.4-0.1-0.6-0.2c-0.6-0.3-0.8-1.1-0.5-1.7l2.1-3.6c0.4-0.6,1.1-0.8,1.7-0.5
	c0.6,0.3,0.8,1.1,0.5,1.7l-2.1,3.6C56.5,82.1,56.1,82.3,55.6,82.3z"/>
<path class="st0" d="M72,54.2c-0.2,0-0.4-0.1-0.6-0.2c-0.6-0.3-0.8-1.1-0.5-1.7l2.1-3.6c0.3-0.6,1.1-0.8,1.7-0.5
	c0.6,0.3,0.8,1.1,0.5,1.7l-2.1,3.6C72.9,53.9,72.5,54.2,72,54.2z"/>
<path class="st0" d="M52.6,59.3c-0.2,0-0.4-0.1-0.6-0.2l-3.6-2.1c-0.6-0.3-0.8-1.1-0.5-1.7c0.3-0.6,1.1-0.8,1.7-0.5l3.6,2.1
	c0.6,0.3,0.8,1.1,0.5,1.7C53.4,59.1,53,59.3,52.6,59.3z"/>
<path class="st0" d="M80.7,75.7c-0.2,0-0.4-0.1-0.6-0.2l-3.6-2.1c-0.6-0.4-0.8-1.1-0.5-1.7c0.3-0.6,1.1-0.8,1.7-0.5l3.6,2.1
	c0.6,0.4,0.8,1.1,0.5,1.7C81.6,75.5,81.2,75.7,80.7,75.7z"/>
<path class="st0" d="M49,75.6c-0.4,0-0.9-0.2-1.1-0.6c-0.3-0.6-0.1-1.4,0.5-1.7l3.6-2.1c0.6-0.3,1.4-0.1,1.7,0.5
	c0.3,0.6,0.1,1.4-0.5,1.7l-3.6,2.1C49.4,75.6,49.2,75.6,49,75.6z"/>
<path class="st0" d="M77.2,59.4c-0.4,0-0.9-0.2-1.1-0.6c-0.3-0.6-0.1-1.4,0.5-1.7l3.6-2.1c0.6-0.3,1.4-0.1,1.7,0.5
	c0.3,0.6,0.1,1.4-0.5,1.7l-3.6,2.1C77.6,59.3,77.4,59.4,77.2,59.4z"/>
<path class="st0" d="M57.8,54.1c-0.4,0-0.9-0.2-1.1-0.6l-2.1-3.6c-0.3-0.6-0.1-1.4,0.5-1.7c0.6-0.3,1.4-0.1,1.7,0.5l2.1,3.6
	c0.3,0.6,0.1,1.4-0.5,1.7C58.2,54.1,58,54.1,57.8,54.1z"/>
<path class="st0" d="M74,82.4c-0.4,0-0.9-0.2-1.1-0.6l-2.1-3.6c-0.3-0.6-0.1-1.4,0.5-1.7c0.6-0.3,1.4-0.1,1.7,0.5l2.1,3.6
	c0.3,0.6,0.1,1.4-0.5,1.7C74.5,82.3,74.2,82.4,74,82.4z"/>
<path class="st0" d="M5,81.2c-0.4,0-0.7-0.1-1-0.4c-0.6-0.6-0.6-1.5,0-2L74.6,8.3c0.6-0.6,1.5-0.6,2,0c0.6,0.6,0.6,1.5,0,2L6,80.8
	C5.8,81.1,5.4,81.2,5,81.2z"/>
</svg>
