<?xml version="1.0" encoding="utf-8"?>
<!-- Generator: Adobe Illustrator 22.0.1, SVG Export Plug-In . SVG Version: 6.00 Build 0)  -->
<svg version="1.1" id="Layer_1" xmlns="http://www.w3.org/2000/svg" xmlns:xlink="http://www.w3.org/1999/xlink" x="0px" y="0px"
	 viewBox="0 0 319.9 372.9" style="enable-background:new 0 0 319.9 372.9;" xml:space="preserve">
<style type="text/css">
	.st0{fill:#FFFFFF;}
</style>
<g>
	<path class="st0" d="M264.6,285.4c0.2,0.7,0.8,1.2,1.5,1.2c0.1,0,0.3,0,0.4-0.1l6.6-1.9c0.8-0.2,1.3-1.1,1.1-2
		c-0.2-0.8-1.1-1.3-2-1.1l-6.6,1.9C264.9,283.7,264.4,284.6,264.6,285.4L264.6,285.4z"/>
	<path class="st0" d="M279.3,282.9c0.1,0,0.3,0,0.4-0.1l6.6-1.9c0.8-0.2,1.3-1.1,1.1-2c-0.2-0.8-1.1-1.3-2-1.1l-6.6,1.9
		c-0.8,0.2-1.3,1.1-1.1,2C278,282.4,278.6,282.9,279.3,282.9L279.3,282.9z"/>
	<path class="st0" d="M269.2,269.6l5-4.7c0.6-0.6,0.7-1.6,0.1-2.3c-0.6-0.6-1.6-0.7-2.3-0.1l-5,4.7c-0.6,0.6-0.7,1.6-0.1,2.3
		c0.3,0.3,0.7,0.5,1.2,0.5C268.5,270,268.9,269.9,269.2,269.6L269.2,269.6z"/>
	<path class="st0" d="M252.5,266.2l-1.6,4c-0.3,0.8,0.1,1.7,0.9,2.1c0.2,0.1,0.4,0.1,0.6,0.1c0.6,0,1.2-0.4,1.5-1l1.6-4
		c0.3-0.8-0.1-1.7-0.9-2.1C253.7,265,252.8,265.4,252.5,266.2L252.5,266.2z"/>
	<path class="st0" d="M255.9,261.7c0.2,0.1,0.4,0.1,0.6,0.1c0.6,0,1.2-0.4,1.5-1l4.2-10.1c0.3-0.8,0-1.7-0.9-2.1
		c-0.8-0.3-1.7,0-2.1,0.9l-4.2,10.1C254.8,260.4,255.1,261.4,255.9,261.7L255.9,261.7z"/>
	<path class="st0" d="M231.6,268.9c0.2,0.7,0.8,1.1,1.5,1.1c0.2,0,0.3,0,0.5-0.1c0.8-0.3,1.3-1.2,1-2l-3-9.4c-0.3-0.8-1.1-1.3-2-1
		c-0.8,0.3-1.3,1.2-1,2L231.6,268.9L231.6,268.9z"/>
	<path class="st0" d="M226.2,253.1c0.2,0.7,0.8,1.1,1.5,1.1c0.2,0,0.3,0,0.5-0.1c0.8-0.3,1.3-1.2,1-2l-1.6-4.9c-0.3-0.8-1.2-1.3-2-1
		c-0.8,0.3-1.3,1.2-1,2L226.2,253.1L226.2,253.1z"/>
	<path class="st0" d="M218.7,263l-6.8-7.7c-0.6-0.7-1.6-0.7-2.3-0.1c-0.7,0.6-0.7,1.6-0.1,2.3l6.8,7.7c0.3,0.4,0.8,0.5,1.2,0.5
		c0.4,0,0.8-0.1,1.1-0.4C219.2,264.7,219.3,263.7,218.7,263L218.7,263z"/>
	<path class="st0" d="M209.6,271.5c-0.8-0.4-1.7-0.2-2.2,0.6c-0.4,0.8-0.2,1.7,0.6,2.2l8.7,4.9c0.2,0.1,0.5,0.2,0.8,0.2
		c0.6,0,1.1-0.3,1.4-0.8c0.4-0.8,0.2-1.7-0.6-2.2L209.6,271.5L209.6,271.5z"/>
	<path class="st0" d="M204.7,268.2l-8.5-4.9c-0.8-0.4-1.7-0.2-2.2,0.6c-0.4,0.8-0.2,1.7,0.6,2.2l8.5,4.9c0.3,0.1,0.5,0.2,0.8,0.2
		c0.5,0,1.1-0.3,1.4-0.8C205.7,269.6,205.4,268.6,204.7,268.2L204.7,268.2z"/>
	<path class="st0" d="M190.9,280.6c-0.9-0.1-1.7,0.4-1.8,1.3c-0.2,0.9,0.4,1.7,1.3,1.8L203,286c0.1,0,0.2,0,0.3,0
		c0.8,0,1.4-0.5,1.6-1.3c0.1-0.9-0.4-1.7-1.3-1.8L190.9,280.6L190.9,280.6z"/>
	<path class="st0" d="M69.6,326.3L69.6,326.3c-0.5-0.3-1-0.4-1.6-0.2c-0.5,0.1-1,0.5-1.2,0.9c-0.3,0.5-0.4,1-0.2,1.6
		c0.1,0.5,0.5,1,1,1.2c0.3,0.2,0.7,0.3,1,0.3c0.2,0,0.4,0,0.5-0.1c0.5-0.1,1-0.5,1.2-1C70.9,328.1,70.6,326.9,69.6,326.3L69.6,326.3
		z"/>
	<path class="st0" d="M261.9,356.5L261.9,356.5c0.9,0,1.6-0.7,1.6-1.6l0-4c0-3.4-2.7-6.2-6.1-6.2l-8.9,0l-6.8-7.1
		c-0.3-0.3-0.7-0.5-1.1-0.5l-27-0.1c0,0,0,0,0,0c-2,0-4,0.8-5.4,2.2c-1.5,1.4-2.3,3.4-2.3,5.4l0,10.3c0,0.9,0.7,1.6,1.6,1.6
		c0,0,0,0,0,0c0.9,0,1.6-0.7,1.6-1.6l0-10.3c0-1.2,0.5-2.3,1.3-3.2c0.8-0.8,2-1.3,3.2-1.3c0,0,0,0,0,0l26.3,0.1l6.8,7.1
		c0.3,0.3,0.7,0.5,1.1,0.5l9.5,0c1.6,0,3,1.3,3,3l0,4C260.3,355.8,261,356.5,261.9,356.5L261.9,356.5z"/>
	<path class="st0" d="M306.1,354.1c-0.7-0.6-1.7-0.6-2.3,0.1c-0.6,0.7-0.5,1.7,0.1,2.3l4.8,4.4h-48.3v0l-6.7,0c0,0,0,0,0,0
		c-0.6,0-1.2,0.4-1.5,1c-0.3,0.6-0.1,1.3,0.3,1.7c0.6,0.7,1,1.5,1,2.5c0,2-1.6,3.5-3.5,3.5c-2,0-3.5-1.6-3.5-3.5
		c0-0.9,0.4-1.8,1-2.5c0.5-0.5,0.6-1.1,0.3-1.7c-0.2-0.6-0.8-1-1.5-1l-26.9-0.1c0,0,0,0,0,0c-0.7,0-1.2,0.4-1.5,1
		c-0.2,0.6-0.1,1.3,0.4,1.7c0.7,0.7,1.1,1.6,1.1,2.5c0,2-1.6,3.5-3.5,3.5c-2,0-3.5-1.6-3.5-3.5c0-1,0.4-1.9,1.1-2.6
		c0.5-0.5,0.6-1.1,0.4-1.7c-0.2-0.6-0.8-1-1.5-1l-9,0c0,0-0.1,0-0.1,0l-18.1,0h0c-0.6,0-1.2,0.3-1.4,0.9c-0.3,0.5-0.2,1.2,0.2,1.7
		c0.5,0.7,0.8,1.5,0.8,2.3c0,1-0.4,2-1.1,2.7c-0.7,0.7-1.7,1.1-2.7,1.1c0,0,0,0,0,0c-2.1,0-3.9-1.7-3.9-3.9c0-0.9,0.3-1.7,0.8-2.3
		c0.4-0.5,0.4-1.1,0.2-1.7c-0.3-0.5-0.8-0.9-1.4-0.9l-10.7,0h0c-0.1,0-0.3,0-0.4,0.1l-7.1,0c-0.7,0-1.2,0.3-1.4,0.9
		c-0.3,0.5-0.2,1.2,0.2,1.7c0.5,0.7,0.8,1.5,0.8,2.3c0,1-0.4,2-1.1,2.7c-0.7,0.7-1.7,1.1-2.7,1.1c0,0,0,0,0,0
		c-2.1,0-3.9-1.7-3.9-3.9c0-0.9,0.3-1.7,0.8-2.3c0.4-0.5,0.4-1.1,0.2-1.7c-0.3-0.5-0.8-0.9-1.4-0.9l-18.1,0h0
		c-0.6,0-1.2,0.3-1.4,0.9c-0.3,0.5-0.2,1.2,0.2,1.7c0.5,0.7,0.8,1.5,0.8,2.3c0,1-0.4,2-1.1,2.7c-0.7,0.7-1.7,1.1-2.7,1.1
		c0,0,0,0,0,0c-1,0-2-0.4-2.7-1.1c-0.7-0.7-1.1-1.7-1.1-2.7c0-0.9,0.3-1.7,0.8-2.3c0.5-0.7,0.4-1.7-0.3-2.2
		c-0.7-0.5-1.7-0.4-2.2,0.3c-0.9,1.2-1.4,2.7-1.4,4.3c0,1.9,0.7,3.7,2.1,5c1.3,1.3,3.1,2.1,5,2.1c0,0,0,0,0,0c1.9,0,3.7-0.7,5-2.1
		c1.3-1.3,2.1-3.1,2.1-5c0-0.6-0.1-1.2-0.2-1.7l13,0c-0.1,0.6-0.2,1.1-0.2,1.7c0,3.9,3.2,7.1,7.1,7.1c0,0,0,0,0,0
		c1.9,0,3.7-0.7,5-2.1c1.3-1.3,2.1-3.1,2.1-5c0-0.6-0.1-1.2-0.2-1.7l9.5,0c0,0,0,0,0,0c0.2,0,0.3,0,0.4-0.1l3.4,0
		c-0.1,0.6-0.2,1.1-0.2,1.7c0,3.9,3.2,7.1,7.1,7.1c0,0,0,0,0,0c1.9,0,3.7-0.7,5-2.1c1.3-1.3,2.1-3.1,2.1-5c0-0.6-0.1-1.2-0.2-1.7
		l11.2,0v0l10.6,0c-0.2,0.7-0.3,1.4-0.3,2.1c0,3.7,3,6.7,6.7,6.7c3.7,0,6.7-3,6.7-6.7c0-0.7-0.1-1.4-0.3-2.1l21.3,0.1
		c-0.2,0.6-0.3,1.3-0.3,2c0,3.7,3,6.7,6.7,6.7c3.7,0,6.7-3,6.7-6.7c0-0.7-0.1-1.3-0.3-2l6.4,0v-0.1H309l-5.4,5.7
		c-0.6,0.6-0.6,1.6,0.1,2.3c0.3,0.3,0.7,0.4,1.1,0.4c0.4,0,0.8-0.2,1.2-0.5l8-8.5c0.3-0.3,0.5-0.7,0.4-1.2c0-0.4-0.2-0.8-0.5-1.1
		L306.1,354.1L306.1,354.1z"/>
	<path class="st0" d="M78.7,337.1l-12.9,0c-1.8,0-3.5,0.8-4.7,2.1l-2.5,2.8c-1.5,1.7-2,4-1.2,6.2l4.2,11.7c0.2,0.7,0.8,1.1,1.5,1.1
		c0.2,0,0.4,0,0.5-0.1c0.8-0.3,1.3-1.2,1-2L60.4,347c-0.4-1-0.1-2.1,0.6-2.9l2.5-2.8c0.6-0.7,1.4-1,2.3-1l12.9,0
		c0.5,0,1,0.2,1.3,0.6c0.4,0.4,0.6,0.8,0.5,1.3l0,16.6c0,0.9,0.7,1.6,1.6,1.6h0c0.9,0,1.6-0.7,1.6-1.6l0-16.6c0-1.4-0.5-2.6-1.5-3.6
		C81.4,337.6,80.1,337.1,78.7,337.1L78.7,337.1z"/>
	<path class="st0" d="M94.9,295.3c-1,1-2.4,1.5-3.6,1.9c0.6-1.2,1.6-2.6,2.7-4c1.3-1.5,2.9-2.4,4.1-2.9
		C97.4,292,96.3,294,94.9,295.3L94.9,295.3z M91.7,291.1c-3.1,3.5-4.5,7.5-4.6,7.7c-0.2,0.5-0.1,1.1,0.2,1.5
		c0.3,0.4,0.8,0.6,1.3,0.6c0,0,0.1,0,0.1,0c0.2,0,5.4-0.4,8.4-3.3c3.3-3.1,5.2-9,5.2-9.2c0.2-0.5,0.1-1.1-0.3-1.5
		c-0.3-0.4-0.9-0.7-1.4-0.6C100.5,286.3,95.5,286.8,91.7,291.1L91.7,291.1z"/>
	<path class="st0" d="M71.6,332.5l0.2,1c-0.2,0.1-0.6-0.2-0.6-0.4C71.2,332.8,71.3,332.5,71.6,332.5L71.6,332.5z M71.7,332.5
		c0.2,0,0.5,0.2,0.5,0.4c0.1,0.3-0.1,0.5-0.4,0.6L71.7,332.5C71.6,332.5,71.7,332.5,71.7,332.5L71.7,332.5z M69.5,331.5
		c-0.4,0.6-0.5,1.3-0.4,2c0.2,0.7,0.6,1.3,1.2,1.7c0.4,0.3,0.9,0.4,1.4,0.4c0.2,0,0.4,0,0.6-0.1h0c1.4-0.3,2.4-1.7,2-3.2
		c-0.2-0.7-0.6-1.3-1.2-1.7c-0.6-0.4-1.3-0.5-2-0.4C70.5,330.5,69.9,330.9,69.5,331.5L69.5,331.5z"/>
	<path class="st0" d="M58.4,331.1c0-1.1,0.9-1.9,1.9-1.9c1.1,0,1.9,0.9,1.9,1.9c0,1.1-0.9,1.9-1.9,1.9
		C59.2,333,58.4,332.2,58.4,331.1L58.4,331.1z M65.4,331.1c0-2.8-2.3-5.1-5.1-5.1c-2.8,0-5.1,2.3-5.1,5.1c0,2.8,2.3,5.1,5.1,5.1
		C63.1,336.2,65.4,333.9,65.4,331.1L65.4,331.1z"/>
	<path class="st0" d="M19.4,138.2c2.5,0.5,4.9,0.7,7.2,0.7c6.7,0,12.8-1.9,18.1-5.7c14.2-10.2,18.1-29.8,19-35.5
		c0.8-5.4,3.6-23.4,6.3-41.1h14.3c0.9,0,1.6-0.7,1.6-1.6c0-0.9-0.7-1.6-1.6-1.6H70.5C73,36.9,75.4,21.5,76,17.7
		c2.9,0,5.9,0.1,8.7,0.1c14.2,0.2,23,0.3,25.7-0.3c3.4-0.7,5.8-2.4,7.2-4.9c2.7-4.8,0.7-10.8,0.6-11.1c-0.3-0.8-1.2-1.3-2-1
		c-0.8,0.3-1.3,1.2-1,2c0,0,1.6,5-0.3,8.5c-1,1.7-2.7,2.8-5.1,3.3c-2.4,0.5-13.9,0.4-24.9,0.2c-11-0.2-23.5-0.3-31.2,0
		C38.2,15.4,28,22.5,25.3,34.1c-0.2,0.9,0.3,1.7,1.2,1.9c0.1,0,0.2,0,0.4,0c0.7,0,1.4-0.5,1.6-1.2c2.3-10.1,11.5-16.3,25.2-17
		c5-0.2,11.9-0.3,19.1-0.2c-1.5,9.6-10.6,69-12.2,79.6c-0.8,5.4-4.5,23.9-17.7,33.4c-6.5,4.6-14.2,6.1-22.9,4.5
		c-7.7-1.4-13.1-5.7-15.4-12.2c-2.9-8-0.8-17.8,2.9-22.2c6.1-7.5,15.8-10.2,24.2-6.8c8.6,3.5,13.1,12.5,12,23.9
		c-0.1,0.9,0.6,1.7,1.4,1.7c0.9,0.1,1.7-0.6,1.7-1.4c1.2-12.9-4-23.1-14-27.1c-9.6-4-20.8-0.8-27.9,7.7c-4.3,5.2-6.7,16.2-3.4,25.3
		C3.5,129.4,8.2,136.1,19.4,138.2L19.4,138.2z"/>
	<path class="st0" d="M85.6,114.3c0.8,0,1.5-0.6,1.6-1.4c0.1-0.4,5.9-42.6,6.9-48.7c1.1-6.1,2.5-7.2,4.8-8.1c6-2.5,9.6,1.9,9.8,2.1
		c0.5,0.7,1.5,0.8,2.2,0.3c0.7-0.5,0.8-1.5,0.3-2.2c-1.8-2.3-6.9-5.9-13.6-3.1c-3.9,1.6-5.6,4.3-6.7,10.5c-1.1,6.2-6.7,47.1-7,48.9
		c-0.1,0.9,0.5,1.7,1.4,1.8C85.5,114.3,85.6,114.3,85.6,114.3L85.6,114.3z"/>
	<path class="st0" d="M111.7,99.7c-0.4,3.8,0.2,6.7,1.9,8.8c1.8,2.1,4.5,3.2,8.5,3.4c0.3,0,0.5,0,0.8,0c6.5,0,9.9-4.8,10.8-9
		c0.7-3.3,1.6-8.5,1.7-8.7c0.1-0.9-0.4-1.7-1.3-1.8c-0.9-0.1-1.7,0.4-1.8,1.3c0,0.1-0.9,5.3-1.6,8.5c-0.3,1.2-1.7,6.9-8.3,6.5
		c-3.1-0.2-5.1-0.9-6.3-2.3c-1.1-1.4-1.5-3.4-1.2-6.3c0.6-5.5,4.1-31.3,5.4-37.4c1-5.1,4.7-8.2,9.5-8c1.6,0.1,3.8,0.5,5.2,2.2
		c1.2,1.5,1.7,3.6,1.3,6.2c-0.1,0.9-0.2,1.9-0.3,2.8c-0.2,2.2-0.5,4.4-0.9,6.4c-1.4,6.9-7.5,6.7-7.8,6.7l-5.1-0.2
		c-0.9,0-1.6,0.6-1.7,1.5c0,0.9,0.6,1.6,1.5,1.7l5.1,0.2c3.2,0.1,9.6-1.6,11.1-9.3c0.4-2.2,0.7-4.4,1-6.7c0.1-1,0.2-1.9,0.3-2.8
		c0.5-3.6-0.2-6.6-2-8.7c-1.7-2-4.4-3.2-7.5-3.3c-6.3-0.2-11.4,4-12.8,10.6C115.9,68.2,112.4,94.1,111.7,99.7L111.7,99.7z"/>
	<path class="st0" d="M153.1,111.9c0.3,0,0.5,0,0.8,0c6.5,0,9.9-4.8,10.8-9c0.7-3.2,1.8-11.2,1.9-12.2c0.2-0.9,1-2.4,3.3-2.4h14.2
		c0.9,0,1.6-0.7,1.6-1.6c0-0.9-0.7-1.6-1.6-1.6h-14.2c-4,0-5.9,2.7-6.5,5c0,0,0,0,0,0l0,0c-0.1,0.4-0.1,0.8-0.1,1.1c0,0,0,0,0,0
		c-0.3,2.5-1.1,8.4-1.7,10.9c-0.3,1.2-1.9,6.9-8.3,6.5c-3.1-0.2-5.1-0.9-6.3-2.3c-1.1-1.4-1.5-3.4-1.2-6.3
		c0.6-5.5,4.1-31.4,5.4-37.4c1-5.1,4.8-8.2,9.5-8c1.6,0.1,3.8,0.5,5.2,2.2c1.2,1.5,1.7,3.6,1.3,6.2c-0.1,0.9-0.2,1.9-0.3,2.8
		c-0.2,2.2-0.5,4.4-0.9,6.4c-1.4,6.9-7.5,6.7-7.8,6.7l-5.1-0.2c-0.9,0-1.6,0.6-1.7,1.5c0,0.9,0.6,1.6,1.5,1.7l5.1,0.2
		c3.2,0.1,9.6-1.6,11.1-9.3c0.4-2.2,0.7-4.4,0.9-6.7c0.1-1,0.2-1.9,0.3-2.8c0.5-3.6-0.2-6.6-2-8.7c-1.7-2-4.4-3.2-7.5-3.3
		c-6.3-0.2-11.4,4-12.8,10.6c-1.3,6.4-4.9,33-5.4,37.7c-0.4,3.8,0.2,6.7,1.9,8.8C146.3,110.5,149.1,111.6,153.1,111.9L153.1,111.9z"
		/>
	<path class="st0" d="M237,23.7c4.7-6.7,10.7-13.5,19.7-12.9c8.1,0.5,12.2,4.5,11.9,11.5c-0.1,2.9-1.7,5.8-4.1,8
		c-2.7,2.4-6.3,3.6-9.7,3.4c-5.9-0.4-11.2-3.6-16.5-7.1c-0.5-0.3-1.3-0.8-2.2-1.4C236.3,24.7,236.6,24.2,237,23.7L237,23.7z
		 M183.4,39.2c8.4,0.1,16.8-3.7,17.1-3.9c0.8-0.4,1.1-1.3,0.8-2.1c-0.4-0.8-1.3-1.1-2.1-0.8c-0.1,0-7.9,3.6-15.4,3.6
		c-0.1,0-0.3,0-0.4,0c-4.6-0.1-9-2.5-11.8-6.6c-3-4.4-3.6-9.9-1.7-15.1c1.9-5.3,5.1-8.7,9.6-10.2c7.3-2.5,16.6,0.7,20.8,3.3
		c1.6,1,6.9,4.2,13.1,7.9c6.2,3.8,13.5,8.2,18.4,11.1c-3.2,7.1-4.8,16.2-5.2,18.8l-0.4,3c-5,41.6-6.6,52-7.1,53.5
		c-1.1,3.5-2.6,6.3-9.4,6.3c-2,0-3.4-0.5-4.3-1.5c-2-2.3-1.5-7-1.2-9.3c0.6-4.7,4.2-29.3,4.8-33.2c1-6.3,4.8-7.7,7-7.9
		c2.1-0.2,4.8-0.2,4.9-0.2c0.9,0,1.6-0.7,1.6-1.6c0-0.9-0.7-1.6-1.6-1.6c-0.1,0-2.9-0.1-5.3,0.2c-1.9,0.2-8.4,1.5-9.8,10.6
		c-0.6,3.9-4.3,28.6-4.8,33.3c-0.5,4.4-0.6,8.8,2,11.8c1.5,1.7,3.8,2.6,6.7,2.6c8.5,0,11-4.1,12.4-8.5c0.7-2.3,3.1-20,7.2-54l0.4-3
		c0.3-2.3,1.9-10.9,4.7-17.5c0.8,0.5,1.4,0.9,1.9,1.2c5.7,3.7,11.4,7.1,18,7.6c4.3,0.3,8.7-1.2,12-4.2c3.1-2.8,5-6.5,5.2-10.3
		c0.4-8.8-5-14.2-14.8-14.8c-10.6-0.7-17.6,7.3-22.5,14.3c-0.4,0.5-0.7,1.1-1.1,1.7c-4.8-2.9-11.8-7.1-18.2-11
		c-6.1-3.7-11.4-6.9-13-7.9c-4.8-3-15.1-6.5-23.5-3.7c-5.4,1.8-9.3,5.9-11.6,12.1c-2.3,6.2-1.5,12.8,2.1,18
		C172.4,36.1,177.8,39.1,183.4,39.2L183.4,39.2z"/>
	<path class="st0" d="M234.4,100c0.4-3,4.4-33.8,4.6-34.9c1.1-6.6,4.3-10,9.4-10.1c3.1-0.1,5.3,0.5,6.4,1.6c0.8,0.9,1.2,2.2,1,4.1
		c-0.4,5.1-3.9,32.7-5.4,39.1c-0.9,4-3.3,8.7-9.4,8.9c-2.7,0.1-4.5-0.5-5.6-1.6C234.3,105.7,233.9,103.4,234.4,100L234.4,100z
		 M241.1,111.8c6.3-0.2,10.9-4.3,12.5-11.4c1.5-6.6,5.1-34.2,5.4-39.5c0.2-2.8-0.4-5-1.9-6.5c-1.8-1.8-4.6-2.7-8.8-2.6
		c-6.7,0.2-11.1,4.7-12.5,12.8l0,0.1c0,0-4.2,31.9-4.6,34.9c-0.6,4.5,0,7.5,1.8,9.6c1.6,1.8,4.1,2.7,7.5,2.7
		C240.7,111.8,240.9,111.8,241.1,111.8L241.1,111.8z"/>
	<path class="st0" d="M302.3,168.4c6,0,10.9,4.9,10.9,10.9c0,6-4.9,10.9-10.9,10.9c-3,0-10.1-1.1-11.2-10.9c-0.3-3.2-0.5-7-0.5-11
		L302.3,168.4L302.3,168.4z M266.9,62.7c-0.6,6.3-7.2,47.6-7.3,48c-0.1,0.9,0.5,1.7,1.3,1.8c0.1,0,0.2,0,0.3,0
		c0.8,0,1.4-0.6,1.6-1.3c0.3-1.7,6.7-41.8,7.3-48.2c0.6-5.7,3.1-8.9,7-8.9c1.8,0,3.3,0.6,4.2,1.7c1,1.1,1.4,2.8,1.1,5
		c-0.5,4.5-0.9,8-0.9,8l-5.7,41.7c-0.1,0.9,0.5,1.7,1.4,1.8c0.9,0.1,1.7-0.5,1.8-1.4l5.7-41.7c0,0,0.4-3.6,0.9-8
		c0.1-0.6,0.1-1.1,0.1-1.7c0-0.1,0.1-0.1,0.1-0.1c0.1-0.3,1.6-6.1,8.9-4.9c3.3,0.6,3.6,4.6,3.3,6.7c-0.5,3.3-7.9,66.4-8.5,72.1
		c-0.5,4.4-1.7,18.7-1.9,31.8l-77.3-0.2l-4.4-6.6c2.4-1,5-3.2,5-7.4c0-1.8-0.7-3.4-2-4.6c-3.5-3.1-10.4-2.5-11.2-2.4
		c-0.8,0.1-1.4,0.8-1.4,1.6l-0.3,19.4h-50.3l-6.9-19.7c-0.2-0.6-0.8-1.1-1.5-1.1c-0.7,0-1.3,0.4-1.5,1.1l-6.8,19.5h-7.4v-18.9
		c0-0.9-0.7-1.6-1.6-1.6c-0.9,0-1.6,0.7-1.6,1.6v20.5c0,0.9,0.7,1.6,1.6,1.6h10.1c0.7,0,1.3-0.4,1.5-1.1l1.7-4.8h2.8
		c0.9,0,1.6-0.7,1.6-1.6c0-0.9-0.7-1.6-1.6-1.6h-1.7l2.9-8.2l5.8,16.5c0.2,0.6,0.8,1.1,1.5,1.1h53.1c0.9,0,1.6-0.7,1.6-1.6l0.3-19.5
		c2.2-0.1,5.7,0.2,7.3,1.7c0.6,0.6,0.9,1.3,0.9,2.2c0,4.2-4.1,4.8-4.6,4.9c-0.6,0.1-1,0.4-1.3,0.9c-0.2,0.5-0.2,1.1,0.1,1.6l6.1,9.1
		c0.3,0.4,0.8,0.7,1.3,0.7l78.2,0.2c0,4.2,0.2,8.1,0.5,11.4c1.4,12.7,11.3,13.7,14.4,13.7c7.8,0,14.1-6.3,14.1-14.1
		c0-7.8-6.3-14.1-14.1-14.1l-11.7,0c0.1-13,1.4-27.4,1.8-31.5c0.6-5.7,8.1-68.7,8.5-71.9c0.6-4.4-0.9-9.5-5.9-10.3
		c-5.3-0.9-8.7,1.1-10.6,3.5c-0.3-0.5-0.6-0.9-0.9-1.3c-1.5-1.7-4-2.7-6.6-2.7C274.3,50.9,268,52.1,266.9,62.7L266.9,62.7z"/>
	<path class="st0" d="M55.7,179.6c0.3,0,0.5,0.2,0.5,0.5c0,0.5-1,0.5-1,0C55.2,179.9,55.4,179.6,55.7,179.6L55.7,179.6z M53,180.1
		c0,1.5,1.2,2.7,2.7,2.7s2.7-1.2,2.7-2.7c0-1.5-1.2-2.7-2.7-2.7S53,178.6,53,180.1L53,180.1z"/>
	<path class="st0" d="M55.8,172.6c0.3,0.2,0.6,0.3,1,0.3c0.2,0,0.3,0,0.5-0.1c0.5-0.1,0.9-0.5,1.2-0.9c0.3-0.4,0.3-1,0.2-1.5
		c-0.1-0.5-0.5-0.9-0.9-1.2c-0.4-0.3-1-0.3-1.5-0.2c-0.5,0.1-0.9,0.5-1.2,0.9c-0.3,0.4-0.3,1-0.2,1.5
		C55.1,171.9,55.4,172.4,55.8,172.6L55.8,172.6z"/>
	<path class="st0" d="M44.8,176.2c0.5,0,0.9,0.4,0.9,0.9c0,0.5-0.4,0.9-0.9,0.9c-0.5,0-0.9-0.4-0.9-0.9
		C43.9,176.6,44.3,176.2,44.8,176.2L44.8,176.2z M44.8,181.2c2.3,0,4.1-1.9,4.1-4.1c0-2.3-1.9-4.1-4.1-4.1c-2.3,0-4.1,1.9-4.1,4.1
		C40.7,179.4,42.5,181.2,44.8,181.2L44.8,181.2z"/>
	<path class="st0" d="M20.3,114.8c-0.2,0.6-0.1,1.3,0.4,1.7l10.6,10.1c0.3,0.3,0.7,0.4,1.1,0.4c0.2,0,0.4,0,0.6-0.1
		c0.6-0.3,1-0.8,1-1.5v-21.3c0-0.9-0.7-1.6-1.6-1.6c-0.9,0-1.6,0.7-1.6,1.6v17.5l-5.1-4.8h0.6c0.6,0,1.2-0.4,1.5-1
		c0.3-0.6,0.1-1.3-0.3-1.7l-10.6-11.1c-0.5-0.5-1.1-0.6-1.7-0.4c-0.6,0.2-1,0.8-1,1.5v21.2c0,0.9,0.7,1.6,1.6,1.6
		c0.9,0,1.6-0.7,1.6-1.6v-17.2l5.3,5.6h-0.8C21.1,113.8,20.5,114.2,20.3,114.8L20.3,114.8z"/>
	<path class="st0" d="M156.3,338.6V331c0-5.3,4.3-9.5,9.5-9.5h15.1c5.3,0,9.5,4.3,9.5,9.5v7.7c0,5.3-4.3,9.5-9.5,9.5h-15.1
		C160.6,348.2,156.3,343.9,156.3,338.6L156.3,338.6z M180.9,351.4c7,0,12.7-5.7,12.7-12.7V331c0-7-5.7-12.7-12.7-12.7h-15.1
		c-7,0-12.7,5.7-12.7,12.7v7.7c0,7,5.7,12.7,12.7,12.7H180.9L180.9,351.4z"/>
	<path class="st0" d="M182.1,315.9c7.8,0,14.1,6.3,14.1,14.1v9.3c0,7.8-6.3,14.1-14.1,14.1h-56.5c-0.9,0-1.6,0.7-1.6,1.6
		c0,0.9,0.7,1.6,1.6,1.6h56.5c9.6,0,17.3-7.8,17.3-17.3V330c0-9.6-7.8-17.3-17.3-17.3h-56.8c-9.6,0-17.3,7.8-17.3,17.3l-0.3,19.8
		c0,1.8-0.4,7.5-5.3,7.5l-0.7,0c-7.5,0-12-3.8-12-10.2c0-7.4,0.4-36.2,0.4-36.5c0-0.3-0.1-0.6-0.2-0.8c-0.3-0.5-7.1-12.6-10.8-15.9
		c-5.5-4.8-10.1-4.9-10.3-5c-0.5,0-1,0.3-1.3,0.7c-0.3,0.4-0.4,1-0.2,1.5c0.1,0.3,2.7,6.6,6.3,9.5c1.3,1,2.7,1.9,4.1,2.7
		c1,0.5,1.6,1.6,1.6,2.7v12.8c0,1.2-0.9,2.1-2.1,2.1L58,321.1c-2.2,0-4.4,0.9-6,2.4l-9.1,8.7c-0.3,0.3-0.5,0.7-0.5,1.2l0,5.3
		c0,0.6,0.4,1.2,1,1.4c0.6,0.3,1.2,0.1,1.7-0.3l5.4-4.8l2.5,2.7c0.5,0.6,0.5,1.4,0,2l-2.7,2.9c-1.5,1.6-1.7,4.1-0.5,5.9
		c1.1,1.6,2.7,3.8,3.4,4.9c1.3,1.8,1.5,3,1.3,3.4c-0.1,0.2-0.7,0.5-2,0.5c-5.2,0-18.6,0.2-18.7,0.2c-16.8,0-30.4-13.7-30.4-30.4
		c0-16.8,13.7-30.4,30.4-30.4c0,0,0,0,0,0h17.4c0.6,0,1.1-0.3,1.4-0.8L70.6,267l1.5,3.7c0.2,0.6,0.8,0.9,1.4,1
		c0.5,0,1.2-0.3,1.5-0.8l8.2-14.1l4.1,5.9c0.3,0.4,0.8,0.7,1.4,0.7c0.5,0,1-0.3,1.3-0.8l0.3-0.5l6,9.2c0.3,0.4,0.7,0.7,1.2,0.7
		c0.5,0.1,1-0.1,1.3-0.5l3.6-3.8l20.6,26.9c0.3,0.4,0.8,0.6,1.3,0.6h26.3c0.9,0,1.6-0.7,1.6-1.6V285c0-0.9-0.7-1.6-1.6-1.6h-5.5
		l5.6-9.6c0.3-0.5,0.3-1.1,0-1.6c-0.3-0.5-0.8-0.8-1.4-0.8h-1.8l6.7-9.7c0.3-0.5,0.4-1.1,0.1-1.6c-0.3-0.5-0.8-0.9-1.4-0.9h-2.9
		l6.3-9.8l6.5,9.8h-3.5c-0.6,0-1.1,0.3-1.4,0.9c-0.3,0.5-0.2,1.2,0.1,1.7l6.9,9.7h-2.3c-0.6,0-1.1,0.3-1.4,0.8
		c-0.3,0.5-0.3,1.1,0,1.6l5.5,9.6h-6.4c-0.9,0-1.6,0.7-1.6,1.6v8.8c0,0.4,0.2,0.8,0.5,1.1c0.3,0.3,0.7,0.5,1.1,0.5h0l57.8-0.1
		c0.9,0,1.6-0.7,1.6-1.5c0.5-10.5,9.1-18.7,19.6-18.7c11.2,0,19.7,8.5,19.7,19.7c0,0.9,0.7,1.6,1.6,1.6c1.5,0,3.7,0,6.5,0.1
		c4.5,0.1,10.6,0.2,17.2,0.2c0.7,0,1.4,0,2.1,0l0,0c18.5,0,33.6-15.1,33.6-33.6c0-18.5-15.1-33.6-33.6-33.6c0,0-0.1,0-0.1,0h-9
		c-4.5,0-7.8-2.6-10.7-4.9c-1.4-1.1-2.7-2.1-4.1-2.8v-5.9h7.2c0.6,0,1.1-0.3,1.4-0.9c0.3-0.5,0.2-1.2-0.1-1.7l-4.8-6.8h2.1
		c0.6,0,1.2-0.3,1.4-0.9c0.3-0.5,0.2-1.2-0.2-1.7l-5.4-6.9h2c0.6,0,1.2-0.4,1.5-1c0.2-0.6,0.1-1.3-0.4-1.7L258,185
		c-0.3-0.3-0.7-0.5-1.1-0.5c-0.5,0-0.8,0.2-1.1,0.5l-9,9.2c-0.4,0.5-0.6,1.1-0.3,1.7c0.3,0.6,0.8,1,1.5,1h1.9l-5.5,6.9
		c-0.4,0.5-0.5,1.1-0.2,1.7c0.3,0.6,0.8,0.9,1.4,0.9h1.5l-4.9,6.8c-0.3,0.5-0.4,1.1-0.1,1.7c0.3,0.5,0.8,0.9,1.4,0.9h6.4l0,5.5
		c-2.3,0.7-3.8,2-5.2,3.2c-2.3,2-4.7,4.1-11.4,4.1c-0.9,0-1.6,0.7-1.6,1.6c0,0.9,0.7,1.6,1.6,1.6c7.9,0,11-2.7,13.5-4.9
		c1.5-1.4,2.8-2.4,5-2.8c0.8-0.1,1.3-0.8,1.4-1.6l0.1-8.4c0-0.4-0.2-0.8-0.5-1.1c-0.3-0.3-0.7-0.5-1.1-0.5h-4.9l4.9-6.8
		c0.4-0.5,0.4-1.1,0.1-1.7c-0.3-0.5-0.8-0.9-1.4-0.9h-1.3l5.5-6.9c0.4-0.5,0.5-1.1,0.2-1.7c-0.3-0.6-0.8-0.9-1.4-0.9h-1.4l5.2-5.3
		l5.3,5.3h-1.4c-0.6,0-1.2,0.3-1.4,0.9c-0.3,0.5-0.2,1.2,0.2,1.7l5.4,6.9H263c-0.6,0-1.1,0.3-1.4,0.9c-0.3,0.5-0.2,1.2,0.1,1.7
		l4.8,6.8h-5.7c-0.9,0-1.6,0.7-1.6,1.6v8.6c0,0.7,0.4,1.3,1.1,1.5c1.3,0.5,2.7,1.6,4.2,2.8c3.2,2.5,7.1,5.6,12.7,5.6h9.1
		c0,0,0,0,0.1,0c16.8,0,30.4,13.7,30.4,30.4c0,16.8-13.7,30.4-30.4,30.4c0,0,0,0,0,0l0,0c-7.4,0-14.2-0.1-19.2-0.2
		c-2,0-3.7-0.1-5-0.1c-0.3-4.7-1.9-8.8-4.4-12.2l6.7-6.6c0.6-0.6,0.6-1.6,0-2.3c-0.6-0.6-1.6-0.6-2.3,0l-6.5,6.4
		c-3.2-3.2-7.3-5.4-12-6.2l2.3-18.4c0.1-0.9-0.5-1.7-1.4-1.8c-0.9-0.1-1.7,0.5-1.8,1.4l-2.3,18.5c-0.4,0-0.8-0.1-1.2-0.1
		c-3.9,0-7.6,1-10.8,2.7l-5-6c-0.6-0.7-1.6-0.8-2.2-0.2c-0.7,0.6-0.8,1.6-0.2,2.2l4.8,5.7c-3.3,2.4-5.9,5.7-7.5,9.5l-7.1-1.4
		c-0.8-0.2-1.7,0.4-1.9,1.3c-0.2,0.9,0.4,1.7,1.3,1.9l6.7,1.3c-0.3,1.1-0.5,2.1-0.6,3.2l-54.7,0.1v-5.6h7.5c0.6,0,1.1-0.3,1.4-0.8
		c0.3-0.5,0.3-1.1,0-1.6l-5.5-9.6h2.6c0.6,0,1.1-0.3,1.4-0.9c0.3-0.5,0.2-1.2-0.1-1.7l-6.9-9.7h3.4c0.6,0,1.1-0.3,1.4-0.8
		c0.3-0.5,0.2-1.1-0.1-1.6l-9.5-14.3c-0.3-0.4-0.8-0.7-1.3-0.7c0,0,0,0,0,0c-0.5,0-1,0.3-1.3,0.7l-9.2,14.3
		c-0.3,0.5-0.3,1.1-0.1,1.6c0.3,0.5,0.8,0.8,1.4,0.8h2.8l-6.7,9.7c-0.3,0.5-0.4,1.1-0.1,1.6c0.3,0.5,0.8,0.9,1.4,0.9h2.1l-5.6,9.6
		c-0.3,0.5-0.3,1.1,0,1.6c0.3,0.5,0.8,0.8,1.4,0.8h6.7v5.4h-23.9l-21.3-27.7c-0.3-0.4-0.7-0.6-1.2-0.6c-0.5,0-0.9,0.2-1.2,0.5
		l-3.5,3.7l-6.3-9.7c-0.3-0.5-0.8-0.7-1.4-0.7c-0.6,0-1.1,0.3-1.3,0.8l-0.3,0.6l-4.1-5.8c-0.3-0.4-0.8-0.7-1.4-0.7
		c-0.5,0-1,0.3-1.3,0.8l-7.8,13.4l-1.5-3.6c-0.2-0.6-0.7-0.9-1.3-1c-0.6-0.1-1.2,0.2-1.5,0.7l-19.1,30.6H33.6v0
		c-18.4,0.1-33.4,15.2-33.4,33.6c0,18.6,15.1,33.6,33.6,33.6c0,0,0,0,0,0v0c0,0,13.5-0.2,18.7-0.2c3,0,4.3-1.2,4.8-2.3
		c0.9-1.7,0.4-4-1.5-6.7c-0.7-1-2.2-3.2-3.4-4.8c-0.4-0.6-0.3-1.4,0.1-1.9l2.7-2.9c1.7-1.8,1.7-4.6,0-6.3l-3.6-3.9
		c-0.6-0.6-1.6-0.7-2.2-0.1l-3.9,3.5l0-1.1l8.6-8.2c1-1,2.4-1.5,3.8-1.5l19.1-0.1c2.9,0,5.3-2.4,5.3-5.3v-12.8
		c0-2.3-1.3-4.4-3.3-5.5c-1.3-0.7-2.5-1.5-3.7-2.4c-1.5-1.2-2.9-3.4-3.9-5.2c1.4,0.6,3.3,1.6,5.3,3.4c2.7,2.4,7.9,11.1,10,14.7
		c-0.1,3.6-0.4,29.2-0.4,36.1c0,8.2,5.8,13.3,15.2,13.3l0.7,0c5.1,0,8.5-4.2,8.5-10.7l0.3-19.8c0-7.8,6.3-14.1,14.1-14.1H182.1
		L182.1,315.9z"/>
	<path class="st0" d="M156.7,213.6V206c0-5.3,4.3-9.5,9.5-9.5h15.1c5.3,0,9.5,4.3,9.5,9.5v7.7c0,5.3-4.3,9.5-9.5,9.5h-15.1
		C161,223.2,156.7,218.9,156.7,213.6L156.7,213.6z M181.3,226.4c7,0,12.7-5.7,12.7-12.7V206c0-7-5.7-12.7-12.7-12.7h-15.1
		c-7,0-12.7,5.7-12.7,12.7v7.7c0,7,5.7,12.7,12.7,12.7H181.3L181.3,226.4z"/>
	<path class="st0" d="M230.1,214.3V205c0-9.6-7.8-17.3-17.3-17.3h-48c-9.6,0-17.3,7.8-17.3,17.3v9.3c0,10.2-3.2,14.1-11.4,14.1
		l-16.4,0h0c-0.3,0-0.5,0.1-0.8,0.2c-1.2,0.6-2.1,1.7-2.9,2.7c-1,1.2-2,2.3-2.9,2.3c-2,0-2.4-1.6-2.5-2.9c0-0.9-0.5-1.7-1.2-2.1
		c-0.7-0.5-1.6-0.5-2.4-0.1c-1.2,0.6-1.9,1.6-2.5,2.6c-0.8,1.3-1.4,2.2-3.3,2.2c-0.6,0-1.6-0.1-1.9-0.7c-0.2-0.5-0.1-1.3,0.4-1.8
		c0.5-0.6,0.6-1.5,0.2-2.2c-0.4-0.7-1.2-1.1-2-0.9c-2.8,0.5-4.2,1.9-5.2,3.1c-1,1.1-1.8,1.9-3.7,2.3c-2,0.4-3.8-1.7-4.6-3.8
		c-0.8-1.9,0-3.5,0.8-4.5c1.5-1.9,4.2-3.2,6.2-3c1.2,0.1,2.2-0.5,2.5-1.5c0.2-0.8-0.2-2-1.5-2.4c-6.2-2.2-14.5,0.1-17.6,8.6
		c-2.6,7.1-3.8,7.6-6.6,7.9c-1.7,0.2-4-0.8-4.6-2.1c-0.1-0.3-0.5-1,0.5-2.1c0.1-0.1,0.4-0.3,0.7-0.4c0.7-0.5,1.7-1.1,1.5-2.3
		c-0.1-0.7-0.9-1.3-1.5-1.4c-5.1-0.7-7.4,2.1-9.3,4.4c-1.3,1.6-2.4,2.9-4.2,3.3c-4.1,0.8-5.1-0.2-6.5-1.6c-1.1-1.2-2.5-2.6-5.7-2.9
		l-4.6,0.1c-16.8,0-30.4-13.7-30.4-30.4c0-17.1,13.7-31,30.4-31c0,0,0,0,0,0l2.9-0.1c-1.7,2.7-2.6,5.8-2.6,9
		c0,9.3,7.6,16.9,16.9,16.9c9.3,0,16.9-7.6,16.9-16.9c0-3.2-0.9-6.3-2.6-9l39,0.1c0,0,0,0,0,0c0.4,0,0.8-0.2,1.1-0.5
		c0.3-0.3,0.5-0.7,0.5-1.1v-15.1l6.5,9.5c0.5,0.7,1.5,0.9,2.2,0.4c0.7-0.5,0.9-1.5,0.4-2.2l-9.4-13.8c-0.4-0.6-1.1-0.8-1.8-0.6
		c-0.7,0.2-1.1,0.8-1.1,1.5v18.7l-40.6-0.1c-0.4,0-0.9,0.1-1.2,0.4c-0.3,0.3-0.5,0.7-0.5,1.1c0,0,0,0,0,0c0,0.1,0,0.2,0.1,0.3
		c0,0.1,0,0.2,0.1,0.3c0.1,0.2,0.2,0.4,0.4,0.6c2.5,2.6,3.8,5.9,3.8,9.5c0,7.6-6.1,13.7-13.7,13.7c-7.6,0-13.7-6.1-13.7-13.7
		c0-3.6,1.4-7,3.9-9.6c0.5-0.5,0.6-1.2,0.3-1.7c-0.3-0.6-0.8-1-1.5-1c0,0,0,0,0,0l-6.3,0.1c0,0,0,0,0,0c-18.5,0-33.6,15.4-33.6,34.2
		c0,18.5,15.1,33.6,33.7,33.6l4.4-0.1c1.8,0.2,2.5,0.9,3.5,1.9c1.6,1.6,3.5,3.7,9.4,2.5c3-0.6,4.6-2.6,6.1-4.4
		c0.9-1.1,1.7-2.1,2.7-2.7c-0.5,1.3-0.5,2.6,0.2,3.9c1.1,2.2,4.1,3.8,7,3.8c0.3,0,0.6,0,0.9-0.1c5-0.6,6.6-2.9,9.2-10
		c1.5-4,4.3-6.2,7.4-7c-0.9,0.6-1.7,1.4-2.4,2.3c-1.8,2.3-2.2,5.1-1.2,7.7c1.6,4.1,4.9,6.4,8.2,5.7c3-0.6,4.4-2.1,5.5-3.3
		c0.4-0.4,0.7-0.8,1-1.1c0,0.8,0.1,1.5,0.4,2.2c0.5,0.9,1.7,2.5,4.7,2.5c3.8,0,5.1-2.2,6.1-3.7c0.1-0.2,0.3-0.4,0.4-0.6
		c0.5,2.9,2.6,4.7,5.5,4.7c2.4,0,4-1.8,5.3-3.4c0.6-0.7,1.2-1.4,1.8-1.8l16,0c13.1,0,14.6-9.9,14.6-17.3V205
		c0-7.8,6.3-14.1,14.1-14.1h48c7.8,0,14.1,6.3,14.1,14.1v9.3c0,7.8-6.3,14.1-14.1,14.1h-48c-0.9,0-1.6,0.7-1.6,1.6
		c0,0.9,0.7,1.6,1.6,1.6h48C222.3,231.6,230.1,223.9,230.1,214.3L230.1,214.3z"/>
	<path class="st0" d="M92.8,174.9c-1-0.3-2.1,0.2-2.5,1.2c-0.3,1,0.2,2.1,1.2,2.5c0.2,0.1,0.4,0.1,0.6,0.1c0.3,0,0.6-0.1,0.9-0.2
		c0.5-0.2,0.8-0.6,1-1.1c0,0,0,0,0,0c0.2-0.5,0.1-1-0.1-1.5C93.7,175.4,93.3,175,92.8,174.9L92.8,174.9z"/>
	<path class="st0" d="M135.1,199.6c0.3,0.2,0.6,0.3,1,0.3c0.2,0,0.3,0,0.5-0.1c0.5-0.1,0.9-0.5,1.2-0.9c0.3-0.5,0.3-1,0.2-1.5
		c-0.1-0.5-0.5-0.9-0.9-1.2c-0.9-0.5-2.1-0.2-2.7,0.7c-0.3,0.5-0.3,1-0.2,1.5C134.3,198.9,134.6,199.4,135.1,199.6L135.1,199.6z"/>
	<path class="st0" d="M143.3,185.4c0.7,0,1.3-0.4,1.7-1c0.5-0.9,0.2-2.1-0.7-2.7l0,0c-0.9-0.5-2.1-0.2-2.7,0.7
		c-0.5,0.9-0.2,2.1,0.7,2.7C142.6,185.3,142.9,185.4,143.3,185.4L143.3,185.4z"/>
	<path class="st0" d="M113,197.8c-0.3,0.5-0.3,1-0.2,1.5c0.1,0.5,0.5,0.9,0.9,1.2c0.3,0.2,0.6,0.3,1,0.3c0.2,0,0.3,0,0.5-0.1
		c0.5-0.1,0.9-0.5,1.2-0.9c0.3-0.5,0.3-1,0.2-1.5c-0.1-0.5-0.5-0.9-0.9-1.2c-0.4-0.3-1-0.3-1.5-0.2C113.6,197,113.2,197.3,113,197.8
		L113,197.8z"/>
	<path class="st0" d="M108.3,184.1c-0.5,0.1-0.9,0.5-1.2,0.9c-0.3,0.5-0.3,1-0.2,1.5c0.1,0.5,0.5,0.9,0.9,1.2c0.3,0.2,0.6,0.3,1,0.3
		c0.2,0,0.3,0,0.5-0.1l0,0c1-0.3,1.6-1.4,1.3-2.4C110.4,184.5,109.3,183.9,108.3,184.1L108.3,184.1z"/>
	<path class="st0" d="M75.1,180.5c-0.2,0.5-0.1,1,0.1,1.5c0.2,0.5,0.6,0.8,1.1,1c0.2,0.1,0.4,0.1,0.6,0.1c0.3,0,0.6-0.1,0.9-0.2
		c0.5-0.2,0.8-0.6,1-1.1l0,0c0.3-1-0.2-2.1-1.2-2.5C76.5,179,75.4,179.5,75.1,180.5L75.1,180.5z"/>
	<path class="st0" d="M219.8,158.8h-2.1c-0.9,0-1.6,0.7-1.6,1.6c0,0.9,0.7,1.6,1.6,1.6h7.5c0.9,0,1.6-0.7,1.6-1.6
		c0-0.9-0.7-1.6-1.6-1.6H223v-11.4h2.1c0.9,0,1.6-0.7,1.6-1.6c0-0.9-0.7-1.6-1.6-1.6h-3.7c-0.9,0-1.6,0.7-1.6,1.6c0,0.1,0,0.2,0,0.2
		c0,0.1,0,0.2,0,0.2V158.8L219.8,158.8z"/>
	<path class="st0" d="M223.5,141.2l3.7-3.7c0.6-0.6,0.6-1.6,0-2.3c-0.6-0.6-1.6-0.6-2.3,0l-3.7,3.7c-0.6,0.6-0.6,1.6,0,2.3
		c0.3,0.3,0.7,0.5,1.1,0.5C222.8,141.7,223.2,141.5,223.5,141.2L223.5,141.2z"/>
	<path class="st0" d="M157.5,162.6c0.9,0,1.6-0.7,1.6-1.6v-14h5.3c0.9,0,1.6-0.7,1.6-1.6c0-0.9-0.7-1.6-1.6-1.6h-13.8
		c-0.9,0-1.6,0.7-1.6,1.6c0,0.9,0.7,1.6,1.6,1.6h5.3v14C155.9,161.9,156.6,162.6,157.5,162.6L157.5,162.6z"/>
	<path class="st0" d="M173.7,143.8c-0.9,0-1.6,0.7-1.6,1.6v10.3c0,0.2,0,1.8,0.9,3.4c0.9,1.6,2.7,3.4,6.6,3.4c2.3,0,4.1-0.7,5.4-2
		c2-2.1,2-4.8,2-5.1v-10.1c0-0.9-0.7-1.6-1.6-1.6c-0.9,0-1.6,0.7-1.6,1.6l0,10.1c0,0,0,1.7-1.1,2.8c-0.7,0.7-1.8,1.1-3.1,1.1
		c-4.1,0-4.3-3.1-4.3-3.7v-10.3C175.3,144.5,174.6,143.8,173.7,143.8L173.7,143.8z"/>
</g>
</svg>
