<?xml version="1.0" encoding="utf-8"?>
<!-- Generator: Adobe Illustrator 22.0.1, SVG Export Plug-In . SVG Version: 6.00 Build 0)  -->
<svg version="1.1" id="Layer_1" xmlns="http://www.w3.org/2000/svg" xmlns:xlink="http://www.w3.org/1999/xlink" x="0px" y="0px"
	 viewBox="0 0 301.1 138.9" style="enable-background:new 0 0 301.1 138.9;" xml:space="preserve">
<g>
	<path d="M19.4,138.2c2.5,0.5,4.9,0.7,7.2,0.7c6.7,0,12.8-1.9,18.1-5.7c14.2-10.2,18.1-29.8,19-35.5c0.8-5.4,3.6-23.4,6.3-41.1h14.3
		c0.9,0,1.6-0.7,1.6-1.6c0-0.9-0.7-1.6-1.6-1.6H70.5C73,36.9,75.4,21.5,76,17.7c2.9,0,5.9,0.1,8.7,0.1c14.2,0.2,23,0.3,25.7-0.3
		c3.4-0.7,5.8-2.4,7.2-4.9c2.7-4.8,0.7-10.8,0.6-11.1c-0.3-0.8-1.2-1.3-2-1c-0.8,0.3-1.3,1.2-1,2c0,0,1.6,5-0.3,8.5
		c-1,1.7-2.7,2.8-5.1,3.3c-2.4,0.5-13.9,0.4-24.9,0.2c-11-0.2-23.5-0.3-31.2,0C38.2,15.4,28,22.5,25.3,34.1
		c-0.2,0.9,0.3,1.7,1.2,1.9c0.1,0,0.2,0,0.4,0c0.7,0,1.4-0.5,1.6-1.2c2.3-10.1,11.5-16.3,25.2-17c5-0.2,11.9-0.3,19.1-0.2
		c-1.5,9.6-10.6,69-12.2,79.6c-0.8,5.4-4.5,23.9-17.7,33.4c-6.5,4.6-14.2,6.1-22.9,4.5c-7.7-1.4-13.1-5.7-15.4-12.2
		c-2.9-8-0.8-17.8,2.9-22.2c6.1-7.5,15.8-10.2,24.2-6.8c8.6,3.5,13.1,12.5,12,23.9c-0.1,0.9,0.6,1.7,1.4,1.7
		c0.9,0.1,1.7-0.6,1.7-1.4c1.2-12.9-4-23.1-14-27.1c-9.6-4-20.8-0.8-27.9,7.7c-4.3,5.2-6.7,16.2-3.4,25.3
		C3.5,129.4,8.2,136.1,19.4,138.2L19.4,138.2z"/>
	<path d="M85.6,114.3c0.8,0,1.5-0.6,1.6-1.4c0.1-0.4,5.9-42.6,6.9-48.7c1.1-6.1,2.5-7.2,4.8-8.1c6-2.5,9.6,1.9,9.8,2.1
		c0.5,0.7,1.5,0.8,2.2,0.3c0.7-0.5,0.8-1.5,0.3-2.2c-1.8-2.3-6.9-5.9-13.6-3.1c-3.9,1.6-5.6,4.3-6.7,10.5c-1.1,6.2-6.7,47.1-7,48.9
		c-0.1,0.9,0.5,1.7,1.4,1.8C85.5,114.3,85.6,114.3,85.6,114.3L85.6,114.3z"/>
	<path d="M111.7,99.7c-0.4,3.8,0.2,6.7,1.9,8.8c1.8,2.1,4.5,3.2,8.5,3.4c0.3,0,0.5,0,0.8,0c6.5,0,9.9-4.8,10.8-9
		c0.7-3.3,1.6-8.5,1.7-8.7c0.1-0.9-0.4-1.7-1.3-1.8c-0.9-0.1-1.7,0.4-1.8,1.3c0,0.1-0.9,5.3-1.6,8.5c-0.3,1.2-1.7,6.9-8.3,6.5
		c-3.1-0.2-5.1-0.9-6.3-2.3c-1.1-1.4-1.5-3.4-1.2-6.3c0.6-5.5,4.1-31.3,5.4-37.4c1-5.1,4.7-8.2,9.5-8c1.6,0.1,3.8,0.5,5.2,2.2
		c1.2,1.5,1.7,3.6,1.3,6.2c-0.1,0.9-0.2,1.9-0.3,2.8c-0.2,2.2-0.5,4.4-0.9,6.4c-1.4,6.9-7.5,6.7-7.8,6.7l-5.1-0.2
		c-0.9,0-1.6,0.6-1.7,1.5c0,0.9,0.6,1.6,1.5,1.7l5.1,0.2c3.2,0.1,9.6-1.6,11.1-9.3c0.4-2.2,0.7-4.4,1-6.7c0.1-1,0.2-1.9,0.3-2.8
		c0.5-3.6-0.2-6.6-2-8.7c-1.7-2-4.4-3.2-7.5-3.3c-6.3-0.2-11.4,4-12.8,10.6C115.9,68.2,112.4,94.1,111.7,99.7L111.7,99.7z"/>
	<path d="M153.1,111.9c0.3,0,0.5,0,0.8,0c6.5,0,9.9-4.8,10.8-9c0.7-3.2,1.8-11.2,1.9-12.2c0.2-0.9,1-2.4,3.3-2.4h14.2
		c0.9,0,1.6-0.7,1.6-1.6c0-0.9-0.7-1.6-1.6-1.6h-14.2c-4,0-5.9,2.7-6.5,5c0,0,0,0,0,0l0,0c-0.1,0.4-0.1,0.8-0.1,1.1c0,0,0,0,0,0
		c-0.3,2.5-1.1,8.4-1.7,10.9c-0.3,1.2-1.9,6.9-8.3,6.5c-3.1-0.2-5.1-0.9-6.3-2.3c-1.1-1.4-1.5-3.4-1.2-6.3
		c0.6-5.5,4.1-31.4,5.4-37.4c1-5.1,4.8-8.2,9.5-8c1.6,0.1,3.8,0.5,5.2,2.2c1.2,1.5,1.7,3.6,1.3,6.2c-0.1,0.9-0.2,1.9-0.3,2.8
		c-0.2,2.2-0.5,4.4-0.9,6.4c-1.4,6.9-7.5,6.7-7.8,6.7l-5.1-0.2c-0.9,0-1.6,0.6-1.7,1.5c0,0.9,0.6,1.6,1.5,1.7l5.1,0.2
		c3.2,0.1,9.6-1.6,11.1-9.3c0.4-2.2,0.7-4.4,0.9-6.7c0.1-1,0.2-1.9,0.3-2.8c0.5-3.6-0.2-6.6-2-8.7c-1.7-2-4.4-3.2-7.5-3.3
		c-6.3-0.2-11.4,4-12.8,10.6c-1.3,6.4-4.9,33-5.4,37.7c-0.4,3.8,0.2,6.7,1.9,8.8C146.3,110.5,149.1,111.6,153.1,111.9L153.1,111.9z"
		/>
	<path d="M237,23.7c4.7-6.7,10.7-13.5,19.7-12.9c8.1,0.5,12.2,4.5,11.9,11.5c-0.1,2.9-1.7,5.8-4.1,8c-2.7,2.4-6.3,3.6-9.7,3.4
		c-5.9-0.4-11.2-3.6-16.5-7.1c-0.5-0.3-1.3-0.8-2.2-1.4C236.3,24.7,236.6,24.2,237,23.7L237,23.7z M183.4,39.2
		c8.4,0.1,16.8-3.7,17.1-3.9c0.8-0.4,1.1-1.3,0.8-2.1c-0.4-0.8-1.3-1.1-2.1-0.8c-0.1,0-7.9,3.6-15.4,3.6c-0.1,0-0.3,0-0.4,0
		c-4.6-0.1-9-2.5-11.8-6.6c-3-4.4-3.6-9.9-1.7-15.1c1.9-5.3,5.1-8.7,9.6-10.2c7.3-2.5,16.6,0.7,20.8,3.3c1.6,1,6.9,4.2,13.1,7.9
		c6.2,3.8,13.5,8.2,18.4,11.1c-3.2,7.1-4.8,16.2-5.2,18.8l-0.4,3c-5,41.6-6.6,52-7.1,53.5c-1.1,3.5-2.6,6.3-9.4,6.3
		c-2,0-3.4-0.5-4.3-1.5c-2-2.3-1.5-7-1.2-9.3c0.6-4.7,4.2-29.3,4.8-33.2c1-6.3,4.8-7.7,7-7.9c2.1-0.2,4.8-0.2,4.9-0.2
		c0.9,0,1.6-0.7,1.6-1.6c0-0.9-0.7-1.6-1.6-1.6c-0.1,0-2.9-0.1-5.3,0.2c-1.9,0.2-8.4,1.5-9.8,10.6c-0.6,3.9-4.3,28.6-4.8,33.3
		c-0.5,4.4-0.6,8.8,2,11.8c1.5,1.7,3.8,2.6,6.7,2.6c8.5,0,11-4.1,12.4-8.5c0.7-2.3,3.1-20,7.2-54l0.4-3c0.3-2.3,1.9-10.9,4.7-17.5
		c0.8,0.5,1.4,0.9,1.9,1.2c5.7,3.7,11.4,7.1,18,7.6c4.3,0.3,8.7-1.2,12-4.2c3.1-2.8,5-6.5,5.2-10.3c0.4-8.8-5-14.2-14.8-14.8
		c-10.6-0.7-17.6,7.3-22.5,14.3c-0.4,0.5-0.7,1.1-1.1,1.7c-4.8-2.9-11.8-7.1-18.2-11c-6.1-3.7-11.4-6.9-13-7.9
		c-4.8-3-15.1-6.5-23.5-3.7c-5.4,1.8-9.3,5.9-11.6,12.1c-2.3,6.2-1.5,12.8,2.1,18C172.4,36.1,177.8,39.1,183.4,39.2L183.4,39.2z"/>
	<path d="M234.4,100c0.4-3,4.4-33.8,4.6-34.9c1.1-6.6,4.3-10,9.4-10.1c3.1-0.1,5.3,0.5,6.4,1.6c0.8,0.9,1.2,2.2,1,4.1
		c-0.4,5.1-3.9,32.7-5.4,39.1c-0.9,4-3.3,8.7-9.4,8.9c-2.7,0.1-4.5-0.5-5.6-1.6C234.3,105.7,233.9,103.4,234.4,100L234.4,100z
		 M241.1,111.8c6.3-0.2,10.9-4.3,12.5-11.4c1.5-6.6,5.1-34.2,5.4-39.5c0.2-2.8-0.4-5-1.9-6.5c-1.8-1.8-4.6-2.7-8.8-2.6
		c-6.7,0.2-11.1,4.7-12.5,12.8l0,0.1c0,0-4.2,31.9-4.6,34.9c-0.6,4.5,0,7.5,1.8,9.6c1.6,1.8,4.1,2.7,7.5,2.7
		C240.7,111.8,240.9,111.8,241.1,111.8L241.1,111.8z"/>
	<path d="M266.9,62.7c-0.6,6.3-7.2,47.6-7.3,48c-0.1,0.9,0.5,1.7,1.3,1.8c0.1,0,0.2,0,0.3,0c0.8,0,1.4-0.6,1.6-1.3
		c0.3-1.7,6.7-41.8,7.3-48.2c0.6-5.7,3.1-8.9,7-8.9c1.8,0,3.3,0.6,4.2,1.7c1,1.1,1.4,2.8,1.1,5c-0.5,4.5-0.9,8-0.9,8l-5.7,41.7
		c-0.1,0.9,0.5,1.7,1.4,1.8c0.9,0.1,1.7-0.5,1.8-1.4l5.7-41.7c0,0,0.4-3.6,0.9-8c0.1-0.6,0.1-1.1,0.1-1.7c0-0.1,0.1-0.1,0.1-0.1
		c0.1-0.3,1.6-6.1,8.9-4.9c3.3,0.6,3.6,4.6,3.3,6.7c-0.3,2.2-3.7,30.8-6.1,51.4h3.2c2.4-20.6,5.8-48.8,6.1-50.9
		c0.6-4.4-0.9-9.5-5.9-10.3c-5.3-0.9-8.7,1.1-10.6,3.5c-0.3-0.5-0.6-0.9-0.9-1.3c-1.5-1.7-4-2.7-6.6-2.7
		C274.3,50.9,268,52.1,266.9,62.7L266.9,62.7z"/>
	<path d="M20.3,114.8c-0.2,0.6-0.1,1.3,0.4,1.7l10.6,10.1c0.3,0.3,0.7,0.4,1.1,0.4c0.2,0,0.4,0,0.6-0.1c0.6-0.3,1-0.8,1-1.5v-21.3
		c0-0.9-0.7-1.6-1.6-1.6c-0.9,0-1.6,0.7-1.6,1.6v17.5l-5.1-4.8h0.6c0.6,0,1.2-0.4,1.5-1c0.3-0.6,0.1-1.3-0.3-1.7l-10.6-11.1
		c-0.5-0.5-1.1-0.6-1.7-0.4c-0.6,0.2-1,0.8-1,1.5v21.2c0,0.9,0.7,1.6,1.6,1.6c0.9,0,1.6-0.7,1.6-1.6v-17.2l5.3,5.6h-0.8
		C21.1,113.8,20.5,114.2,20.3,114.8L20.3,114.8z"/>
</g>
</svg>
